<svg width="176" height="35" viewBox="0 0 176 35" fill="none" xmlns="http://www.w3.org/2000/svg">
<path d="M52.083 25.8459C51.183 25.8459 50.3747 25.6376 49.658 25.2209C48.9413 24.8042 48.3747 24.2376 47.958 23.5209C47.558 22.7876 47.358 21.9376 47.358 20.9709L47.358 12.2709C47.358 11.8209 47.2497 11.4126 47.033 11.0459C46.8163 10.6792 46.5247 10.3876 46.158 10.1709C45.7913 9.95423 45.3913 9.8459 44.958 9.8459C44.5247 9.8459 44.1247 9.95423 43.758 10.1709C43.408 10.3876 43.1247 10.6792 42.908 11.0459C42.708 11.4126 42.608 11.8209 42.608 12.2709L42.608 25.5459L40.208 25.5459L40.208 12.5959C40.208 11.6792 40.408 10.8542 40.808 10.1209C41.208 9.38757 41.7663 8.81257 42.483 8.3959C43.1997 7.96257 44.0247 7.7459 44.958 7.7459C45.908 7.7459 46.7413 7.96257 47.458 8.3959C48.1747 8.81257 48.733 9.38757 49.133 10.1209C49.533 10.8542 49.733 11.6792 49.733 12.5959L49.733 21.2959C49.733 21.7626 49.8413 22.1792 50.058 22.5459C50.2747 22.8959 50.558 23.1792 50.908 23.3959C51.2747 23.6126 51.6663 23.7209 52.083 23.7209C52.4997 23.7209 52.883 23.6126 53.233 23.3959C53.583 23.1792 53.858 22.8959 54.058 22.5459C54.2747 22.1792 54.383 21.7626 54.383 21.2959L54.383 12.5959C54.383 11.6792 54.583 10.8542 54.983 10.1209C55.3997 9.38757 55.9663 8.81257 56.683 8.3959C57.3997 7.96257 58.233 7.7459 59.183 7.7459C60.1163 7.7459 60.9413 7.96257 61.658 8.3959C62.3747 8.81257 62.933 9.38757 63.333 10.1209C63.733 10.8542 63.933 11.6792 63.933 12.5959L63.933 25.5459L61.533 25.5459L61.533 12.2709C61.533 11.8209 61.4247 11.4126 61.208 11.0459C61.008 10.6792 60.7247 10.3876 60.358 10.1709C60.008 9.95424 59.6163 9.8459 59.183 9.8459C58.733 9.8459 58.3247 9.95423 57.958 10.1709C57.608 10.3876 57.3247 10.6792 57.108 11.0459C56.8913 11.4126 56.783 11.8209 56.783 12.2709L56.783 20.9709C56.783 21.9376 56.5747 22.7876 56.158 23.5209C55.758 24.2376 55.1997 24.8042 54.483 25.2209C53.783 25.6376 52.983 25.8459 52.083 25.8459ZM67.4297 25.5459L67.4297 16.4209C67.4297 15.2876 67.7464 14.4042 68.3797 13.7709C69.0297 13.1209 69.9214 12.7959 71.0547 12.7959L73.6797 12.7959L73.6797 14.7709L71.4797 14.7709C70.9297 14.7709 70.4964 14.9292 70.1797 15.2459C69.8797 15.5626 69.7297 16.0042 69.7297 16.5709L69.7297 25.5459L67.4297 25.5459ZM76.5805 25.7959C76.1305 25.7959 75.7388 25.6376 75.4055 25.3209C75.0888 24.9876 74.9305 24.5959 74.9305 24.1459C74.9305 23.6959 75.0888 23.3126 75.4055 22.9959C75.7388 22.6626 76.1305 22.4959 76.5805 22.4959C77.0305 22.4959 77.4138 22.6626 77.7305 22.9959C78.0638 23.3126 78.2305 23.6959 78.2305 24.1459C78.2305 24.4459 78.1555 24.7209 78.0055 24.9709C77.8721 25.2209 77.6805 25.4209 77.4305 25.5709C77.1805 25.7209 76.8971 25.7959 76.5805 25.7959ZM92.8057 25.8459C91.9057 25.8459 91.0973 25.6376 90.3807 25.2209C89.664 24.8042 89.0973 24.2376 88.6807 23.5209C88.2807 22.7876 88.0807 21.9376 88.0807 20.9709L88.0807 12.2709C88.0807 11.8209 87.9723 11.4126 87.7557 11.0459C87.539 10.6792 87.2473 10.3876 86.8807 10.1709C86.514 9.95424 86.114 9.84591 85.6807 9.84591C85.2473 9.84591 84.8473 9.95424 84.4807 10.1709C84.1307 10.3876 83.8473 10.6792 83.6307 11.0459C83.4307 11.4126 83.3307 11.8209 83.3307 12.2709L83.3307 25.5459L80.9307 25.5459L80.9307 12.5959C80.9307 11.6792 81.1307 10.8542 81.5307 10.1209C81.9307 9.38757 82.489 8.81257 83.2057 8.39591C83.9223 7.96257 84.7473 7.74591 85.6807 7.74591C86.6307 7.74591 87.464 7.96257 88.1807 8.39591C88.8973 8.81257 89.4557 9.38757 89.8557 10.1209C90.2557 10.8542 90.4557 11.6792 90.4557 12.5959L90.4557 21.2959C90.4557 21.7626 90.564 22.1792 90.7807 22.5459C90.9973 22.8959 91.2807 23.1792 91.6307 23.3959C91.9973 23.6126 92.389 23.7209 92.8057 23.7209C93.2223 23.7209 93.6057 23.6126 93.9557 23.3959C94.3057 23.1792 94.5807 22.8959 94.7807 22.5459C94.9973 22.1792 95.1057 21.7626 95.1057 21.2959L95.1057 12.5959C95.1057 11.6792 95.3057 10.8542 95.7057 10.1209C96.1223 9.38757 96.689 8.81257 97.4057 8.39591C98.1223 7.96257 98.9557 7.74591 99.9057 7.74591C100.839 7.74591 101.664 7.96258 102.381 8.39591C103.097 8.81258 103.656 9.38758 104.056 10.1209C104.456 10.8542 104.656 11.6792 104.656 12.5959L104.656 25.5459L102.256 25.5459L102.256 12.2709C102.256 11.8209 102.147 11.4126 101.931 11.0459C101.731 10.6792 101.447 10.3876 101.081 10.1709C100.731 9.95424 100.339 9.84591 99.9057 9.84591C99.4557 9.84591 99.0473 9.95424 98.6807 10.1709C98.3307 10.3876 98.0473 10.6792 97.8307 11.0459C97.614 11.4126 97.5057 11.8209 97.5057 12.2709L97.5057 20.9709C97.5057 21.9376 97.2973 22.7876 96.8807 23.5209C96.4807 24.2376 95.9223 24.8042 95.2057 25.2209C94.5057 25.6376 93.7057 25.8459 92.8057 25.8459ZM114.702 25.5459C113.302 25.5459 112.061 25.2876 110.977 24.7709C109.894 24.2376 109.044 23.4959 108.427 22.5459C107.827 21.5792 107.527 20.4542 107.527 19.1709C107.527 17.9042 107.786 16.7709 108.302 15.7709C108.819 14.7542 109.536 13.9542 110.452 13.3709C111.369 12.7876 112.436 12.4959 113.652 12.4959C114.969 12.4959 116.061 12.7792 116.927 13.3459C117.811 13.9126 118.469 14.6792 118.902 15.6459C119.336 16.5959 119.552 17.6626 119.552 18.8459C119.552 19.0292 119.544 19.2209 119.527 19.4209C119.527 19.6209 119.511 19.7959 119.477 19.9459L109.977 19.9459C110.061 20.7292 110.319 21.3959 110.752 21.9459C111.186 22.4792 111.736 22.8876 112.402 23.1709C113.086 23.4376 113.836 23.5709 114.652 23.5709L117.977 23.5709L117.977 25.5459L114.702 25.5459ZM109.952 18.3209L117.227 18.3209C117.227 18.0042 117.194 17.6709 117.127 17.3209C117.061 16.9542 116.944 16.6042 116.777 16.2709C116.611 15.9209 116.386 15.6126 116.102 15.3459C115.836 15.0626 115.494 14.8376 115.077 14.6709C114.677 14.5042 114.202 14.4209 113.652 14.4209C113.069 14.4209 112.552 14.5376 112.102 14.7709C111.669 14.9876 111.294 15.2876 110.977 15.6709C110.661 16.0376 110.419 16.4542 110.252 16.9209C110.086 17.3876 109.986 17.8542 109.952 18.3209ZM128.36 25.8459C127.393 25.8459 126.51 25.6959 125.71 25.3959C124.91 25.0792 124.218 24.6209 123.635 24.0209C123.052 23.4209 122.593 22.7042 122.26 21.8709C121.943 21.0209 121.785 20.0709 121.785 19.0209C121.785 17.6876 122.052 16.5376 122.585 15.5709C123.135 14.5876 123.877 13.8292 124.81 13.2959C125.76 12.7626 126.818 12.4959 127.985 12.4959C128.635 12.4959 129.252 12.6042 129.835 12.8209C130.435 13.0376 130.968 13.3376 131.435 13.7209C131.902 14.1042 132.268 14.5542 132.535 15.0709L132.585 15.0709L132.585 7.29591L134.885 7.29591L134.885 19.0959C134.885 20.5126 134.593 21.7292 134.01 22.7459C133.443 23.7459 132.668 24.5126 131.685 25.0459C130.718 25.5792 129.61 25.8459 128.36 25.8459ZM128.36 23.8709C129.143 23.8709 129.852 23.6792 130.485 23.2959C131.118 22.9126 131.618 22.3709 131.985 21.6709C132.368 20.9709 132.56 20.1459 132.56 19.1959C132.56 18.2292 132.368 17.3959 131.985 16.6959C131.618 15.9792 131.118 15.4292 130.485 15.0459C129.852 14.6626 129.135 14.4709 128.335 14.4709C127.552 14.4709 126.835 14.6709 126.185 15.0709C125.552 15.4709 125.043 16.0209 124.66 16.7209C124.293 17.4209 124.11 18.2376 124.11 19.1709C124.11 20.1376 124.302 20.9709 124.685 21.6709C125.068 22.3709 125.577 22.9126 126.21 23.2959C126.86 23.6792 127.577 23.8709 128.36 23.8709ZM138.452 25.5459L138.452 12.7959L140.777 12.7959L140.777 25.5459L138.452 25.5459ZM139.627 10.7709C139.21 10.7709 138.844 10.6209 138.527 10.3209C138.227 10.0042 138.077 9.63758 138.077 9.22091C138.077 8.80425 138.227 8.44592 138.527 8.14591C138.844 7.82925 139.21 7.67092 139.627 7.67092C140.044 7.67092 140.402 7.82925 140.702 8.14592C141.019 8.44592 141.177 8.80425 141.177 9.22091C141.177 9.63758 141.019 10.0042 140.702 10.3209C140.402 10.6209 140.044 10.7709 139.627 10.7709ZM150.584 25.5459C149.267 25.5459 148.092 25.2626 147.059 24.6959C146.026 24.1293 145.209 23.3709 144.609 22.4209C144.009 21.4543 143.709 20.3709 143.709 19.1709C143.709 17.9709 144.009 16.8959 144.609 15.9459C145.209 14.9792 146.026 14.2126 147.059 13.6459C148.092 13.0793 149.267 12.7959 150.584 12.7959L152.084 12.7959L152.084 14.7709L150.509 14.7709C149.659 14.7709 148.892 14.9709 148.209 15.3709C147.542 15.7543 147.009 16.2793 146.609 16.9459C146.226 17.6126 146.034 18.3543 146.034 19.1709C146.034 19.9876 146.226 20.7293 146.609 21.3959C147.009 22.0626 147.542 22.5959 148.209 22.9959C148.892 23.3793 149.659 23.5709 150.509 23.5709L152.084 23.5709L152.084 25.5459L150.584 25.5459ZM160.012 25.8459C158.778 25.8459 157.712 25.5543 156.812 24.9709C155.912 24.3709 155.22 23.5626 154.737 22.5459C154.253 21.5293 154.012 20.4043 154.012 19.1709C154.012 17.9209 154.278 16.7959 154.812 15.7959C155.345 14.7793 156.112 13.9793 157.112 13.3959C158.112 12.7959 159.312 12.4959 160.712 12.4959C162.062 12.4959 163.22 12.7876 164.187 13.3709C165.153 13.9543 165.895 14.7459 166.412 15.7459C166.945 16.7459 167.212 17.8626 167.212 19.0959L167.212 25.5459L164.887 25.5459L164.887 22.9459L164.837 22.9459C164.587 23.4293 164.245 23.8959 163.812 24.3459C163.395 24.7793 162.87 25.1376 162.237 25.4209C161.603 25.7043 160.862 25.8459 160.012 25.8459ZM160.612 23.8709C161.445 23.8709 162.178 23.6709 162.812 23.2709C163.462 22.8543 163.962 22.2876 164.312 21.5709C164.678 20.8376 164.862 20.0209 164.862 19.1209C164.862 18.2376 164.687 17.4459 164.337 16.7459C164.003 16.0459 163.52 15.4959 162.887 15.0959C162.253 14.6793 161.512 14.4709 160.662 14.4709C159.762 14.4709 158.987 14.6793 158.337 15.0959C157.703 15.5126 157.212 16.0793 156.862 16.7959C156.528 17.4959 156.362 18.2959 156.362 19.1959C156.362 20.0626 156.528 20.8543 156.862 21.5709C157.195 22.2709 157.678 22.8293 158.312 23.2459C158.945 23.6626 159.712 23.8709 160.612 23.8709ZM170.874 25.5459L170.874 7.29592L173.174 7.29592L173.174 25.5459L170.874 25.5459Z" fill="#0152A8"/>
<path d="M27.7648 6.59319C26.2787 5.11177 24.2659 4.27991 22.1676 4.27991C20.0692 4.27991 18.0564 5.11177 16.5704 6.59319L2.31747 20.8461C0.832993 22.3306 -0.000976562 24.3439 -0.000976562 26.4433C-0.000976562 28.5427 0.832993 30.5561 2.31747 32.0405C3.80195 33.525 5.81533 34.359 7.91469 34.359C10.0141 34.359 12.0274 33.525 13.5119 32.0405L27.7648 17.7876C29.2426 16.2996 30.072 14.2876 30.072 12.1904C30.072 10.0933 29.2426 8.0812 27.7648 6.59319ZM26.0723 16.0951L19.7921 22.3901L11.9679 14.5659L18.2629 8.28572C18.7727 7.7677 19.3805 7.35629 20.0508 7.07547C20.7212 6.79465 21.4408 6.65003 22.1676 6.65003C22.8944 6.65003 23.6139 6.79465 24.2843 7.07547C24.9547 7.35629 25.5625 7.7677 26.0723 8.28572C26.5867 8.79756 26.9949 9.40601 27.2735 10.0761C27.552 10.7462 27.6954 11.4647 27.6954 12.1904C27.6954 12.9161 27.552 13.6346 27.2735 14.3047C26.9949 14.9748 26.5867 15.5833 26.0723 16.0951ZM24.2758 12.621C24.3857 12.7322 24.4722 12.8642 24.5303 13.0094C24.5884 13.1545 24.6169 13.3098 24.6142 13.4661C24.6114 13.6224 24.5774 13.7765 24.5142 13.9195C24.451 14.0625 24.3599 14.1914 24.2461 14.2987L20.6235 17.8025C20.5123 17.9124 20.3803 17.9989 20.2351 18.057C20.09 18.1151 19.9347 18.1436 19.7784 18.1408C19.6221 18.1381 19.4679 18.1041 19.325 18.0409C19.182 17.9777 19.0531 17.8865 18.9458 17.7728C18.836 17.6616 18.7494 17.5295 18.6913 17.3844C18.6332 17.2393 18.6047 17.084 18.6075 16.9277C18.6102 16.7714 18.6442 16.6172 18.7074 16.4742C18.7706 16.3313 18.8618 16.2024 18.9755 16.0951L22.5981 12.5913C22.8247 12.3731 23.1286 12.2536 23.4431 12.2592C23.7576 12.2648 24.0571 12.3949 24.2758 12.621Z" fill="#0FE3AF"/>
</svg>
