<svg width="162" height="34" viewBox="0 0 162 34" fill="none" xmlns="http://www.w3.org/2000/svg">
<path d="M41.9437 8.3209C41.9437 7.95423 42.0021 7.5959 42.1187 7.2459C43.8687 7.46256 45.8687 7.5709 48.1187 7.5709C50.3687 7.5709 52.6854 7.35423 55.0687 6.9209C54.8354 8.4709 53.8687 9.31257 52.1687 9.4459C51.2854 9.52923 50.3937 9.5959 49.4937 9.6459C49.4771 10.2959 49.1937 12.5459 48.6437 16.3959C48.1104 20.2459 47.8437 22.8959 47.8437 24.3459C47.8437 25.7792 47.9604 26.7709 48.1937 27.3209C47.1604 26.9542 46.4271 26.4626 45.9937 25.8459C45.5771 25.2126 45.3687 24.4626 45.3687 23.5959C45.3687 22.7126 45.5854 20.6792 46.0187 17.4959C46.4687 14.2959 46.7271 11.7209 46.7937 9.7709C45.3437 9.8209 44.0937 9.8459 43.0437 9.8459C42.3104 9.8459 41.9437 9.33756 41.9437 8.3209ZM65.966 26.5459C65.8993 26.5959 65.6827 26.6626 65.316 26.7459C64.966 26.8459 64.6327 26.8959 64.316 26.8959C64.016 26.8959 63.841 26.7709 63.791 26.5209C63.5577 25.4876 63.2827 23.8709 62.966 21.6709C62.6493 19.4709 62.4327 18.0376 62.316 17.3709C61.9827 18.1209 61.2743 19.5959 60.191 21.7959C59.1243 23.9959 58.3993 25.5792 58.016 26.5459C57.9327 26.6126 57.7493 26.6876 57.466 26.7709C57.1993 26.8542 56.916 26.8959 56.616 26.8959C56.316 26.8959 56.141 26.7709 56.091 26.5209C55.841 25.4542 55.5743 23.8626 55.291 21.7459C55.0077 19.6126 54.7077 17.7542 54.391 16.1709C54.0743 14.5709 53.6743 13.3626 53.191 12.5459C53.8243 12.1126 54.3493 11.8959 54.766 11.8959C55.1993 11.8959 55.5493 11.9959 55.816 12.1959C56.0993 12.3792 56.3243 12.6792 56.491 13.0959C56.6743 13.4959 56.816 13.9459 56.916 14.4459C57.016 14.9292 57.0993 15.5542 57.166 16.3209C57.2327 17.0709 57.291 17.7959 57.341 18.4959C57.491 20.7292 57.6493 22.5376 57.816 23.9209C59.7327 19.4709 60.9743 16.1792 61.541 14.0459C61.3577 13.5126 61.141 13.0126 60.891 12.5459C61.5243 12.1126 62.0493 11.8959 62.466 11.8959C62.8827 11.8959 63.2243 11.9959 63.491 12.1959C63.7577 12.3792 63.9743 12.6792 64.141 13.0959C64.3077 13.4959 64.441 13.9459 64.541 14.4459C64.6577 14.9292 64.7493 15.5542 64.816 16.3209C64.8993 17.0709 64.966 17.7959 65.016 18.4959C65.1493 20.4459 65.316 22.2542 65.516 23.9209C66.3493 21.9709 66.9827 20.4792 67.416 19.4459C67.8493 18.3959 68.316 17.0626 68.816 15.4459C69.316 13.8292 69.5743 12.5376 69.591 11.5709C70.6243 12.0709 71.141 12.8792 71.141 13.9959C71.141 14.7459 70.841 15.7709 70.241 17.0709C69.6577 18.3709 68.916 19.9292 68.016 21.7459C67.116 23.5459 66.4327 25.1459 65.966 26.5459ZM82.4887 18.3459C82.4887 16.7126 82.2803 15.5459 81.8637 14.8459C81.4637 14.1292 80.8803 13.7709 80.1137 13.7709C79.3637 13.7709 78.6053 14.1459 77.8387 14.8959C77.072 15.6292 76.4637 16.5459 76.0137 17.6459C75.5803 18.7292 75.3637 19.8626 75.3637 21.0459C75.3637 22.2126 75.5887 23.2292 76.0387 24.0959C76.4887 24.9459 77.172 25.3709 78.0887 25.3709C79.3887 25.3709 80.447 24.6042 81.2637 23.0709C82.0803 21.5376 82.4887 19.9626 82.4887 18.3459ZM75.2387 17.3709C75.872 15.5709 76.722 14.2626 77.7887 13.4459C78.872 12.6126 79.9637 12.1959 81.0637 12.1959C82.1803 12.1959 83.1053 12.6876 83.8387 13.6709C84.572 14.6376 84.9387 15.9542 84.9387 17.6209C84.9387 19.4542 84.5887 21.1542 83.8887 22.7209C83.1053 24.4542 81.972 25.6626 80.4887 26.3459C79.6887 26.7292 78.8053 26.9209 77.8387 26.9209C76.4887 26.9209 75.3053 26.3626 74.2887 25.2459C73.272 24.1126 72.7637 22.5042 72.7637 20.4209C72.7637 18.3209 73.2137 16.5042 74.1137 14.9709C75.0137 13.4376 76.2387 12.3709 77.7887 11.7709C78.122 11.7709 78.2887 11.9376 78.2887 12.2709C76.6387 13.3542 75.622 15.0542 75.2387 17.3709ZM91.5184 18.8209C92.0684 16.9376 92.91 15.3542 94.0434 14.0709C95.1934 12.7709 96.2684 12.1209 97.2684 12.1209C98.2684 12.1209 98.9767 12.4292 99.3934 13.0459C99.81 13.6459 100.018 14.4709 100.018 15.5209C100.018 16.5542 99.8517 18.0126 99.5184 19.8959C99.2017 21.7792 99.0434 23.1542 99.0434 24.0209C99.0434 24.8709 99.1517 25.4959 99.3684 25.8959C99.585 26.2792 99.9517 26.6126 100.468 26.8959C100.252 26.9126 99.9434 26.9209 99.5434 26.9209C98.4767 26.9209 97.685 26.7042 97.1684 26.2709C96.6684 25.8209 96.4184 25.0626 96.4184 23.9959C96.4184 23.3792 96.585 22.1376 96.9184 20.2709C97.2517 18.3876 97.4184 17.0042 97.4184 16.1209C97.4184 15.0209 97.035 14.4709 96.2684 14.4709C95.8184 14.4709 95.3184 14.7126 94.7684 15.1959C94.2184 15.6626 93.685 16.3042 93.1684 17.1209C92.6684 17.9209 92.2434 18.9459 91.8934 20.1959C91.56 21.4292 91.3934 22.6542 91.3934 23.8709C91.3934 25.0709 91.4434 25.9626 91.5434 26.5459C91.1434 26.5792 90.9184 26.5959 90.8684 26.5959C90.085 26.5959 89.5017 26.4292 89.1184 26.0959C88.7517 25.7626 88.5684 25.2459 88.5684 24.5459C88.5684 23.8292 88.7184 22.4626 89.0184 20.4459C89.9017 14.2459 90.3434 9.53757 90.3434 6.32091C90.3434 4.87091 90.2434 3.89591 90.0434 3.39591C91.01 3.74591 91.685 4.26257 92.0684 4.94591C92.4684 5.62924 92.6684 6.57091 92.6684 7.77091C92.6684 8.60424 92.5017 10.3542 92.1684 13.0209C91.8517 15.6876 91.635 17.6209 91.5184 18.8209ZM107.621 16.7709C107.137 17.6042 106.762 18.4626 106.496 19.3459C106.246 20.2126 106.121 21.0459 106.121 21.8459C106.121 22.6459 106.296 23.3292 106.646 23.8959C107.012 24.4459 107.529 24.7209 108.196 24.7209C109.129 24.7209 110.004 24.2126 110.821 23.1959C111.637 22.1626 112.262 20.9209 112.696 19.4709C113.146 18.0042 113.371 16.6542 113.371 15.4209C113.371 14.1709 113.321 13.1459 113.221 12.3459C113.621 12.3126 113.871 12.2959 113.971 12.2959C115.387 12.2959 116.096 13.0209 116.096 14.4709C116.096 14.7876 115.896 16.0792 115.496 18.3459C115.096 20.5959 114.896 22.4042 114.896 23.7709C114.896 25.1209 115.154 26.3209 115.671 27.3709C114.621 27.1542 113.854 26.6959 113.371 25.9959C112.904 25.2792 112.671 24.2542 112.671 22.9209C112.671 22.6876 112.704 22.2376 112.771 21.5709C112.321 23.1542 111.529 24.4292 110.396 25.3959C109.262 26.3626 108.146 26.8459 107.046 26.8459C105.962 26.8459 105.087 26.4376 104.421 25.6209C103.754 24.7876 103.421 23.6459 103.421 22.1959C103.421 20.7292 103.687 19.3042 104.221 17.9209C104.771 16.5209 105.587 15.3126 106.671 14.2959C107.771 13.2792 108.996 12.7709 110.346 12.7709C110.929 12.7709 111.571 12.8876 112.271 13.1209C111.287 13.3709 110.387 13.8292 109.571 14.4959C108.754 15.1626 108.104 15.9209 107.621 16.7709ZM131.54 15.6709C131.54 16.4376 131.373 17.7959 131.04 19.7459C130.723 21.6792 130.565 23.0876 130.565 23.9709C130.565 24.8542 130.673 25.4959 130.89 25.8959C131.107 26.2792 131.473 26.6126 131.99 26.8959C131.773 26.9126 131.465 26.9209 131.065 26.9209C129.932 26.9209 129.123 26.7126 128.64 26.2959C128.173 25.8626 127.94 25.0959 127.94 23.9959C127.94 23.3792 128.107 22.1376 128.44 20.2709C128.773 18.3876 128.94 17.0042 128.94 16.1209C128.94 15.0209 128.607 14.4709 127.94 14.4709C126.873 14.4709 125.765 15.4126 124.615 17.2959C123.482 19.1792 122.915 21.4459 122.915 24.0959C122.915 25.1459 122.965 25.9626 123.065 26.5459C122.632 26.5792 122.373 26.5959 122.29 26.5959C120.823 26.5959 120.09 25.8792 120.09 24.4459C120.09 24.1126 120.265 22.8292 120.615 20.5959C120.965 18.3626 121.14 16.5876 121.14 15.2709C121.14 13.9376 120.998 12.7126 120.715 11.5959C121.698 11.9792 122.382 12.5292 122.765 13.2459C123.165 13.9459 123.365 14.7542 123.365 15.6709C123.365 16.5709 123.265 17.6209 123.065 18.8209C123.615 16.9376 124.473 15.3542 125.64 14.0709C126.823 12.7709 127.923 12.1209 128.94 12.1209C130.673 12.1209 131.54 13.3042 131.54 15.6709ZM137.589 21.4959C137.589 22.4459 137.773 23.2209 138.139 23.8209C138.506 24.4209 139.073 24.7209 139.839 24.7209C140.623 24.7209 141.331 24.3792 141.964 23.6959C142.614 22.9959 143.131 22.0626 143.514 20.8959C143.914 19.7126 144.256 18.4626 144.539 17.1459C144.839 15.8126 145.056 14.3959 145.189 12.8959C145.439 10.1126 145.564 7.90425 145.564 6.27092C145.564 4.63758 145.498 3.42092 145.364 2.62092C147.081 3.17092 147.939 4.89592 147.939 7.79592C147.939 8.97925 147.656 11.3626 147.089 14.9459C146.539 18.5292 146.264 21.1459 146.264 22.7959C146.264 24.4459 146.339 25.8459 146.489 26.9959C145.539 26.6793 144.889 26.1126 144.539 25.2959C144.189 24.4792 144.014 23.4376 144.014 22.1709C143.498 23.6042 142.731 24.7376 141.714 25.5709C140.698 26.4042 139.639 26.8209 138.539 26.8209C137.456 26.8209 136.573 26.4042 135.889 25.5709C135.223 24.7209 134.889 23.4792 134.889 21.8459C134.889 19.1292 135.598 16.8959 137.014 15.1459C138.448 13.3959 140.223 12.5209 142.339 12.5209C142.939 12.5209 143.581 12.6126 144.264 12.7959C143.131 12.9792 142.114 13.3959 141.214 14.0459C140.314 14.6792 139.614 15.4292 139.114 16.2959C138.098 18.0626 137.589 19.7959 137.589 21.4959ZM156.095 13.3459C155.545 13.3459 155.045 13.5209 154.595 13.8709C154.161 14.2209 153.945 14.7043 153.945 15.3209C153.945 15.9209 154.145 16.4876 154.545 17.0209C154.961 17.5543 155.461 18.0293 156.045 18.4459C156.628 18.8626 157.22 19.2876 157.82 19.7209C159.22 20.7543 159.92 21.8626 159.92 23.0459C159.92 24.2293 159.445 25.1959 158.495 25.9459C157.545 26.6793 156.328 27.0459 154.845 27.0459C153.378 27.0459 152.236 26.7543 151.42 26.1709C150.62 25.5876 150.22 24.9043 150.22 24.1209C150.22 23.3209 150.42 22.6959 150.82 22.2459C151.22 21.7959 151.703 21.5709 152.27 21.5709C152.57 21.5709 152.853 21.6376 153.12 21.7709C152.753 22.2376 152.57 22.7876 152.57 23.4209C152.57 24.0543 152.761 24.5876 153.145 25.0209C153.545 25.4543 154.086 25.6709 154.77 25.6709C155.47 25.6709 156.061 25.4959 156.545 25.1459C157.028 24.7793 157.27 24.3209 157.27 23.7709C157.27 23.2209 157.128 22.7376 156.845 22.3209C156.561 21.9043 156.203 21.5459 155.77 21.2459C155.353 20.9459 154.895 20.6126 154.395 20.2459C153.895 19.8793 153.428 19.5209 152.995 19.1709C152.578 18.8043 152.228 18.3543 151.945 17.8209C151.661 17.2709 151.52 16.6709 151.52 16.0209C151.52 14.8376 151.97 13.8709 152.87 13.1209C153.77 12.3543 154.903 11.9709 156.27 11.9709C157.636 11.9709 158.636 12.2543 159.27 12.8209C159.903 13.3876 160.22 14.0293 160.22 14.7459C160.22 15.4459 160.045 16.0293 159.695 16.4959C159.345 16.9459 158.895 17.1709 158.345 17.1709C158.078 17.1709 157.77 17.0959 157.42 16.9459C157.853 16.4126 158.07 15.8376 158.07 15.2209C158.07 14.6043 157.878 14.1376 157.495 13.8209C157.128 13.5043 156.661 13.3459 156.095 13.3459Z" fill="#0152A8"/>
<path d="M32.8062 13.2377V20.7027C32.8062 21.3626 32.544 21.9956 32.0773 22.4622C31.6107 22.9289 30.9778 23.191 30.3178 23.191H22.8529V30.656C22.8529 31.3159 22.5907 31.9488 22.1241 32.4155C21.6574 32.8821 21.0245 33.1443 20.3646 33.1443H12.8996C12.2397 33.1443 11.6067 32.8821 11.1401 32.4155C10.6734 31.9488 10.4113 31.3159 10.4113 30.656V23.191H2.94633C2.28638 23.191 1.65347 22.9289 1.18682 22.4622C0.720169 21.9956 0.458008 21.3626 0.458008 20.7027V13.2377C0.458008 12.5778 0.720169 11.9449 1.18682 11.4782C1.65347 11.0116 2.28638 10.7494 2.94633 10.7494H10.4113V3.28446C10.4113 2.62452 10.6734 1.9916 11.1401 1.52495C11.6067 1.0583 12.2397 0.796143 12.8996 0.796143H20.3646C21.0245 0.796143 21.6574 1.0583 22.1241 1.52495C22.5907 1.9916 22.8529 2.62452 22.8529 3.28446V10.7494H30.3178C30.9778 10.7494 31.6107 11.0116 32.0773 11.4782C32.544 11.9449 32.8062 12.5778 32.8062 13.2377Z" fill="#0FE3AF"/>
</svg>
