<svg width="216" height="33" viewBox="0 0 216 33" fill="none" xmlns="http://www.w3.org/2000/svg">
<path d="M52.6932 25.5728L52.6932 7.32275L54.9432 7.32275L54.9432 15.1228L60.7932 15.1228L60.7932 7.32276L63.0432 7.32276L63.0432 25.5728L60.7932 25.5728L60.7932 17.1728L54.9432 17.1728L54.9432 25.5728L52.6932 25.5728ZM72.8584 25.8228C71.7751 25.8228 70.8251 25.6061 70.0084 25.1728C69.2084 24.7394 68.5834 24.1311 68.1334 23.3478C67.7001 22.5478 67.4834 21.6228 67.4834 20.5728L67.4834 16.8228C67.4834 15.7561 67.7001 14.8311 68.1334 14.0478C68.5834 13.2644 69.2084 12.6561 70.0084 12.2228C70.8251 11.7894 71.7751 11.5728 72.8584 11.5728C73.9417 11.5728 74.8834 11.7894 75.6834 12.2228C76.5001 12.6561 77.1251 13.2644 77.5584 14.0478C78.0084 14.8311 78.2334 15.7561 78.2334 16.8228L78.2334 19.2478L69.6834 19.2478L69.6834 20.5728C69.6834 21.6561 69.9584 22.4894 70.5084 23.0728C71.0584 23.6394 71.8417 23.9228 72.8584 23.9228C73.7251 23.9228 74.4251 23.7728 74.9584 23.4728C75.4917 23.1561 75.8167 22.6894 75.9334 22.0728L78.1834 22.0728C78.0334 23.2228 77.4667 24.1394 76.4834 24.8228C75.5167 25.4894 74.3084 25.8228 72.8584 25.8228ZM76.0334 17.7478L76.0334 16.8228C76.0334 15.7394 75.7584 14.9061 75.2084 14.3228C74.6751 13.7394 73.8917 13.4478 72.8584 13.4478C71.8417 13.4478 71.0584 13.7394 70.5084 14.3228C69.9584 14.9061 69.6834 15.7394 69.6834 16.8228L69.6834 17.5478L76.2084 17.5478L76.0334 17.7478ZM86.6486 25.8228C85.1986 25.8228 84.057 25.4561 83.2236 24.7228C82.3903 23.9728 81.9736 22.9644 81.9736 21.6978C81.9736 20.4144 82.3903 19.4061 83.2236 18.6728C84.057 17.9394 85.182 17.5728 86.5986 17.5728L90.8486 17.5728L90.8486 16.1978C90.8486 15.3478 90.5903 14.6978 90.0736 14.2478C89.5736 13.7811 88.857 13.5478 87.9236 13.5478C87.107 13.5478 86.4236 13.7228 85.8736 14.0728C85.3236 14.4061 85.007 14.8644 84.9236 15.4478L82.6736 15.4478C82.8236 14.2644 83.382 13.3228 84.3486 12.6228C85.3153 11.9228 86.5236 11.5728 87.9736 11.5728C89.557 11.5728 90.807 11.9811 91.7236 12.7978C92.6403 13.6144 93.0986 14.7228 93.0986 16.1228L93.0986 25.5728L90.8986 25.5728L90.8986 22.9478L90.5236 22.9478L90.8986 22.5728C90.8986 23.5728 90.507 24.3644 89.7236 24.9478C88.957 25.5311 87.932 25.8228 86.6486 25.8228ZM87.1986 24.0478C88.2653 24.0478 89.1403 23.7811 89.8236 23.2478C90.507 22.7144 90.8486 22.0311 90.8486 21.1978L90.8486 19.2478L86.6486 19.2478C85.8986 19.2478 85.307 19.4561 84.8736 19.8728C84.4403 20.2894 84.2236 20.8561 84.2236 21.5728C84.2236 22.3394 84.482 22.9478 84.9986 23.3978C85.532 23.8311 86.2653 24.0478 87.1986 24.0478ZM104.714 25.5728C103.914 25.5728 103.214 25.4144 102.614 25.0978C102.014 24.7811 101.547 24.3311 101.214 23.7478C100.881 23.1644 100.714 22.4811 100.714 21.6978L100.714 9.37276L96.0889 9.37276L96.0889 7.32276L102.964 7.32276L102.964 21.6978C102.964 22.2644 103.122 22.7144 103.439 23.0478C103.756 23.3644 104.181 23.5228 104.714 23.5228L109.089 23.5228L109.089 25.5728L104.714 25.5728ZM119.329 25.5728C118.146 25.5728 117.221 25.2561 116.554 24.6228C115.904 23.9894 115.579 23.0978 115.579 21.9478L115.579 13.8728L111.704 13.8728L111.704 11.8228L115.579 11.8228L115.579 7.94776L117.829 7.94776L117.829 11.8228L123.329 11.8228L123.329 13.8728L117.829 13.8728L117.829 21.9478C117.829 22.9978 118.329 23.5228 119.329 23.5228L123.079 23.5228L123.079 25.5728L119.329 25.5728ZM127.619 25.5728L127.619 7.32277L129.869 7.32277L129.869 11.8228L129.869 14.4478L130.344 14.4478L129.869 14.9728C129.869 13.8894 130.194 13.0561 130.844 12.4728C131.494 11.8728 132.394 11.5728 133.544 11.5728C134.928 11.5728 136.028 11.9978 136.844 12.8478C137.661 13.6978 138.069 14.8561 138.069 16.3228L138.069 25.5728L135.819 25.5728L135.819 16.5728C135.819 15.5894 135.553 14.8311 135.019 14.2978C134.503 13.7478 133.794 13.4728 132.894 13.4728C131.961 13.4728 131.219 13.7644 130.669 14.3478C130.136 14.9311 129.869 15.7561 129.869 16.8228L129.869 25.5728L127.619 25.5728ZM162.9 25.8228C161.8 25.8228 160.841 25.6144 160.025 25.1978C159.225 24.7811 158.6 24.1811 158.15 23.3978C157.716 22.5978 157.5 21.6561 157.5 20.5728L157.5 12.3228C157.5 11.2228 157.716 10.2811 158.15 9.49777C158.6 8.71444 159.225 8.11444 160.025 7.69777C160.841 7.28111 161.8 7.07277 162.9 7.07277C164 7.07277 164.95 7.28944 165.75 7.72277C166.55 8.13944 167.166 8.73944 167.6 9.52277C168.033 10.3061 168.25 11.2394 168.25 12.3228L166 12.3228C166 11.2894 165.725 10.4978 165.175 9.94777C164.641 9.38111 163.883 9.09777 162.9 9.09777C161.916 9.09777 161.141 9.37277 160.575 9.92277C160.025 10.4728 159.75 11.2644 159.75 12.2978L159.75 20.5728C159.75 21.6061 160.025 22.4061 160.575 22.9728C161.141 23.5228 161.916 23.7978 162.9 23.7978C163.883 23.7978 164.641 23.5228 165.175 22.9728C165.725 22.4061 166 21.6061 166 20.5728L168.25 20.5728C168.25 21.6394 168.033 22.5728 167.6 23.3728C167.166 24.1561 166.55 24.7644 165.75 25.1978C164.95 25.6144 164 25.8228 162.9 25.8228ZM176.59 25.8228C175.14 25.8228 173.998 25.4561 173.165 24.7228C172.332 23.9728 171.915 22.9644 171.915 21.6978C171.915 20.4144 172.332 19.4061 173.165 18.6728C173.998 17.9394 175.123 17.5728 176.54 17.5728L180.79 17.5728L180.79 16.1978C180.79 15.3478 180.532 14.6978 180.015 14.2478C179.515 13.7811 178.798 13.5478 177.865 13.5478C177.048 13.5478 176.365 13.7228 175.815 14.0728C175.265 14.4061 174.948 14.8644 174.865 15.4478L172.615 15.4478C172.765 14.2644 173.323 13.3228 174.29 12.6228C175.257 11.9228 176.465 11.5728 177.915 11.5728C179.498 11.5728 180.748 11.9811 181.665 12.7978C182.582 13.6144 183.04 14.7228 183.04 16.1228L183.04 25.5728L180.84 25.5728L180.84 22.9478L180.465 22.9478L180.84 22.5728C180.84 23.5728 180.448 24.3644 179.665 24.9478C178.898 25.5311 177.873 25.8228 176.59 25.8228ZM177.14 24.0478C178.207 24.0478 179.082 23.7811 179.765 23.2478C180.448 22.7144 180.79 22.0311 180.79 21.1978L180.79 19.2478L176.59 19.2478C175.84 19.2478 175.248 19.4561 174.815 19.8728C174.382 20.2894 174.165 20.8561 174.165 21.5728C174.165 22.3394 174.423 22.9478 174.94 23.3978C175.473 23.8311 176.207 24.0478 177.14 24.0478ZM188.055 25.5728L188.055 11.8228L190.255 11.8228L190.255 14.4478L190.78 14.4478L190.055 16.0728C190.055 14.5894 190.372 13.4728 191.005 12.7228C191.655 11.9561 192.614 11.5728 193.88 11.5728C195.33 11.5728 196.48 12.0311 197.33 12.9478C198.197 13.8478 198.63 15.0728 198.63 16.6228L198.63 17.4478L196.38 17.4478L196.38 16.8228C196.38 15.7394 196.114 14.9144 195.58 14.3478C195.064 13.7644 194.322 13.4728 193.355 13.4728C192.405 13.4728 191.655 13.7644 191.105 14.3478C190.572 14.9311 190.305 15.7561 190.305 16.8228L190.305 25.5728L188.055 25.5728ZM207.771 25.8228C206.687 25.8228 205.737 25.6061 204.921 25.1728C204.121 24.7394 203.496 24.1311 203.046 23.3478C202.612 22.5478 202.396 21.6228 202.396 20.5728L202.396 16.8228C202.396 15.7561 202.612 14.8311 203.046 14.0478C203.496 13.2644 204.121 12.6561 204.921 12.2228C205.737 11.7894 206.687 11.5728 207.771 11.5728C208.854 11.5728 209.796 11.7894 210.596 12.2228C211.412 12.6561 212.037 13.2644 212.471 14.0478C212.921 14.8311 213.146 15.7561 213.146 16.8228L213.146 19.2478L204.596 19.2478L204.596 20.5728C204.596 21.6561 204.871 22.4894 205.421 23.0728C205.971 23.6394 206.754 23.9228 207.771 23.9228C208.637 23.9228 209.337 23.7728 209.871 23.4728C210.404 23.1561 210.729 22.6894 210.846 22.0728L213.096 22.0728C212.946 23.2228 212.379 24.1394 211.396 24.8228C210.429 25.4894 209.221 25.8228 207.771 25.8228ZM210.946 17.7478L210.946 16.8228C210.946 15.7394 210.671 14.9061 210.121 14.3228C209.587 13.7394 208.804 13.4478 207.771 13.4478C206.754 13.4478 205.971 13.7394 205.421 14.3228C204.871 14.9061 204.596 15.7394 204.596 16.8228L204.596 17.5478L211.121 17.5478L210.946 17.7478Z" fill="#0152A8"/>
<path d="M35.8059 6.72923H35.6493C35.522 6.39104 35.3232 6.08436 35.0663 5.83022C34.8095 5.57607 34.5007 5.38047 34.1612 5.25682L21.6301 0.698625C21.0738 0.49499 20.4633 0.49499 19.907 0.698625L7.37591 5.25682C7.03639 5.38047 6.72763 5.57607 6.47078 5.83022C6.21393 6.08436 6.01507 6.39104 5.88784 6.72923H5.7312C4.40309 6.73336 3.13055 7.26278 2.19143 8.20191C1.2523 9.14103 0.722881 10.4136 0.71875 11.7417L0.71875 15.501C0.722881 16.8291 1.2523 18.1017 2.19143 19.0408C3.13055 19.9799 4.40309 20.5093 5.7312 20.5135H6.54572C7.57954 22.7691 9.56886 24.7427 12.4354 26.3404C15.7404 28.1731 19.2648 29.0033 20.2516 29.2069L20.7686 29.2539L21.2855 29.2069C22.2723 29.0033 25.7967 28.1731 29.1018 26.3404C31.9683 24.7427 33.9576 22.7691 34.9914 20.5135H35.8059C37.134 20.5093 38.4066 19.9799 39.3457 19.0408C40.2848 18.1017 40.8142 16.8291 40.8184 15.501V11.7417C40.8142 10.4136 40.2848 9.14103 39.3457 8.20191C38.4066 7.26278 37.134 6.73336 35.8059 6.72923ZM5.7312 18.0072C5.06651 18.0072 4.42904 17.7432 3.95903 17.2732C3.48902 16.8032 3.22498 16.1657 3.22498 15.501V11.7417C3.22498 11.077 3.48902 10.4395 3.95903 9.96951C4.42904 9.4995 5.06651 9.23546 5.7312 9.23546V16.7541C5.73076 17.1736 5.76218 17.5925 5.82518 18.0072H5.7312ZM27.0341 19.2604H14.503C14.1706 19.2604 13.8519 19.1283 13.6169 18.8933C13.3819 18.6583 13.2499 18.3396 13.2499 18.0072C13.2499 17.6749 13.3819 17.3562 13.6169 17.1212C13.8519 16.8862 14.1706 16.7541 14.503 16.7541H27.0341C27.3665 16.7541 27.6852 16.8862 27.9202 17.1212C28.1552 17.3562 28.2872 17.6749 28.2872 18.0072C28.2872 18.3396 28.1552 18.6583 27.9202 18.8933C27.6852 19.1283 27.3665 19.2604 27.0341 19.2604ZM27.0341 14.2479H14.503C14.1706 14.2479 13.8519 14.1159 13.6169 13.8809C13.3819 13.6459 13.2499 13.3271 13.2499 12.9948C13.2499 12.6624 13.3819 12.3437 13.6169 12.1087C13.8519 11.8737 14.1706 11.7417 14.503 11.7417H27.0341C27.3665 11.7417 27.6852 11.8737 27.9202 12.1087C28.1552 12.3437 28.2872 12.6624 28.2872 12.9948C28.2872 13.3271 28.1552 13.6459 27.9202 13.8809C27.6852 14.1159 27.3665 14.2479 27.0341 14.2479ZM38.3121 15.501C38.3121 16.1657 38.0481 16.8032 37.5781 17.2732C37.1081 17.7432 36.4706 18.0072 35.8059 18.0072H35.7119C35.7749 17.5925 35.8063 17.1736 35.8059 16.7541V9.23546C36.4706 9.23546 37.1081 9.4995 37.5781 9.96951C38.0481 10.4395 38.3121 11.077 38.3121 11.7417V15.501Z" fill="#0FE3AF"/>
</svg>
