<svg width="196" height="34" viewBox="0 0 196 34" fill="none" xmlns="http://www.w3.org/2000/svg">
<path d="M49.061 24.436C48.6216 24.436 48.2025 24.4564 47.8037 24.4971C47.4049 24.5296 46.9655 24.5459 46.4853 24.5459L45.9971 24.5459C45.9238 24.5459 45.8709 24.5011 45.8384 24.4116C45.8058 24.314 45.7895 24.2407 45.7895 24.1919C45.7895 24.1105 45.7977 24.0413 45.814 23.9844C45.8384 23.9193 45.8791 23.8826 45.936 23.8745C46.0255 23.8501 46.1313 23.8298 46.2534 23.8135C46.3755 23.7972 46.5016 23.785 46.6318 23.7769C46.762 23.7606 46.8841 23.7524 46.998 23.7524C47.1201 23.7443 47.2259 23.7402 47.3154 23.7402C47.5107 23.7402 47.6979 23.6955 47.8769 23.606C48.0641 23.5164 48.2147 23.4066 48.3286 23.2764C48.41 23.1706 48.4792 23.0688 48.5361 22.9712C48.5931 22.8654 48.6419 22.723 48.6826 22.5439C48.7314 22.3649 48.7681 22.133 48.7925 21.8481C48.825 21.5633 48.8576 21.189 48.8901 20.7251L49.4639 10.2515C49.4639 9.99919 49.4354 9.74691 49.3784 9.49463C49.3215 9.23421 49.2279 8.99414 49.0977 8.77441C48.9756 8.54655 48.8128 8.35124 48.6094 8.18848C48.4059 8.02572 48.1577 7.91178 47.8647 7.84668C47.8403 7.83854 47.7752 7.8304 47.6694 7.82227C47.5636 7.80599 47.4497 7.78971 47.3276 7.77344C47.2056 7.75716 47.0916 7.74495 46.9858 7.73682C46.88 7.72054 46.8109 7.7124 46.7783 7.7124C46.6156 7.67985 46.4854 7.6473 46.3877 7.61475C46.2982 7.58219 46.2534 7.48047 46.2534 7.30957C46.2534 7.23633 46.2575 7.16716 46.2656 7.10205C46.2738 7.02881 46.3063 6.99219 46.3633 6.99219L46.8638 6.99219C47.0754 6.99219 47.2707 7.00033 47.4497 7.0166C47.6369 7.03288 47.8241 7.05322 48.0112 7.07764C48.1984 7.10205 48.3937 7.1224 48.5972 7.13867C48.8088 7.15495 49.0407 7.16309 49.293 7.16309L50.4526 7.16309C50.591 7.16309 50.7171 7.15495 50.8311 7.13867C50.9531 7.11426 51.1118 7.10205 51.3071 7.10205C51.4536 7.10205 51.6082 7.1224 51.771 7.16309C51.9338 7.19564 52.0518 7.26888 52.125 7.38281C52.2633 7.54557 52.3813 7.72868 52.479 7.93213C52.5767 8.12744 52.6621 8.33496 52.7354 8.55469L56.8369 19.3457C56.8695 19.4271 56.902 19.4963 56.9346 19.5532C56.9671 19.6021 57.0037 19.6265 57.0444 19.6265C57.1014 19.6265 57.1462 19.5939 57.1787 19.5288C57.2113 19.4637 57.2357 19.4027 57.2519 19.3457L61.8662 7.24854C61.915 7.15902 61.9842 7.10205 62.0737 7.07764C62.1714 7.05323 62.2772 7.04102 62.3911 7.04102C62.798 7.04102 63.1886 7.03288 63.563 7.0166C63.9455 7.00033 64.3239 6.97998 64.6982 6.95557C65.0807 6.93116 65.4632 6.91081 65.8457 6.89453C66.2363 6.87826 66.6473 6.87012 67.0786 6.87012C67.103 6.87012 67.1356 6.87012 67.1763 6.87012C67.2251 6.87012 67.2699 6.87826 67.3105 6.89454C67.3594 6.90267 67.4001 6.91895 67.4326 6.94336C67.4652 6.96778 67.4814 7.00033 67.4814 7.04102C67.4814 7.15495 67.4326 7.27295 67.335 7.39502C67.2373 7.50896 67.1152 7.56592 66.9687 7.56592C66.5618 7.56592 66.2241 7.61475 65.9556 7.71241C65.687 7.81006 65.4144 8.00944 65.1377 8.31055C65.0156 8.43262 64.918 8.57097 64.8447 8.72559C64.7715 8.88021 64.7104 9.04704 64.6616 9.22608C64.6209 9.39698 64.5924 9.57601 64.5762 9.76319C64.568 9.94222 64.564 10.1172 64.564 10.2881L64.7593 23.3252C64.8162 23.4961 64.9546 23.6141 65.1743 23.6792C65.394 23.7443 65.6382 23.7891 65.9067 23.8135C66.1753 23.8298 66.4357 23.846 66.688 23.8623C66.9484 23.8704 67.1478 23.9071 67.2861 23.9722C67.3838 24.0129 67.4408 24.0658 67.457 24.1309C67.4733 24.1878 67.4814 24.2407 67.4814 24.2896C67.4814 24.4198 67.4123 24.5011 67.2739 24.5337C67.1437 24.5581 66.9647 24.5703 66.7368 24.5703C66.4764 24.5703 66.2323 24.5662 66.0044 24.5581C65.7765 24.55 65.5487 24.5459 65.3208 24.5459C65.1011 24.5378 64.8691 24.5296 64.625 24.5215C64.3809 24.5133 64.1082 24.5093 63.8071 24.5093L61.9394 24.5093C61.7034 24.5093 61.4756 24.5133 61.2559 24.5215C61.0361 24.5215 60.8164 24.5296 60.5967 24.5459C60.3363 24.5703 60.0758 24.5825 59.8154 24.5825C59.7503 24.5825 59.6811 24.5785 59.6079 24.5703C59.5428 24.5703 59.4777 24.5581 59.4126 24.5337C59.3556 24.5093 59.3068 24.4727 59.2661 24.4238C59.2336 24.3669 59.2173 24.2936 59.2173 24.2041C59.2173 24.0413 59.319 23.9355 59.5225 23.8867C59.7259 23.8298 59.97 23.8013 60.2549 23.8013L60.7676 23.8013C60.9385 23.8013 61.0972 23.7972 61.2436 23.7891C61.3983 23.7809 61.5325 23.7565 61.6465 23.7158C61.7604 23.6751 61.8499 23.6182 61.915 23.5449C61.9883 23.4635 62.0249 23.3537 62.0249 23.2153L61.8662 10.2515C61.8662 10.2108 61.8581 10.1538 61.8418 10.0806C61.8255 10.0073 61.797 9.97071 61.7563 9.97071C61.6994 9.97071 61.6546 9.98291 61.6221 10.0073C61.5977 10.0236 61.5773 10.0399 61.561 10.0562L56.0923 24.2896C56.0597 24.4198 56.0109 24.4849 55.9458 24.4849C55.8807 24.4849 55.8237 24.4198 55.7749 24.2896L50.3306 9.93408C50.3062 9.83643 50.2573 9.7876 50.1841 9.7876C50.1515 9.7876 50.123 9.79574 50.0986 9.81201C50.0824 9.82829 50.0742 9.86898 50.0742 9.93408L49.7568 21.5918C49.7568 21.6895 49.7609 21.8197 49.769 21.9824C49.7853 22.137 49.8057 22.2998 49.8301 22.4707C49.8626 22.6416 49.8992 22.8084 49.9399 22.9712C49.9888 23.134 50.0498 23.2723 50.123 23.3862C50.2288 23.5571 50.3875 23.6833 50.5991 23.7646C50.8188 23.8379 51.0508 23.8908 51.2949 23.9233C51.5472 23.9478 51.7954 23.964 52.0395 23.9722C52.2918 23.9803 52.5034 23.9966 52.6743 24.021C52.772 24.0291 52.8371 24.0658 52.8696 24.1309C52.9103 24.196 52.9307 24.2651 52.9307 24.3384C52.9307 24.3872 52.9022 24.4279 52.8452 24.4605C52.7964 24.493 52.7313 24.5215 52.6499 24.5459C52.5767 24.5622 52.4912 24.5703 52.3936 24.5703C52.2959 24.5785 52.2064 24.5825 52.125 24.5825C51.8239 24.5825 51.5431 24.5744 51.2827 24.5581C51.0223 24.5418 50.77 24.5256 50.5259 24.5093C50.2817 24.493 50.0417 24.4767 49.8057 24.4604C49.5697 24.4442 49.3214 24.436 49.061 24.436ZM73.3164 18.4424L75.4038 18.3569C75.7293 18.3325 75.9775 18.2552 76.1484 18.125C76.3193 17.9867 76.4455 17.8239 76.5269 17.6367C76.6164 17.4414 76.6815 17.2298 76.7222 17.002C76.771 16.7741 76.8402 16.5503 76.9297 16.3306C76.9541 16.2329 76.9948 16.1841 77.0518 16.1841C77.1657 16.1841 77.2227 16.2126 77.2227 16.2695L77.2227 16.7578C77.2227 17.0833 77.2064 17.4373 77.1738 17.8198C77.1494 18.1942 77.1372 18.5156 77.1372 18.7842C77.1372 19.0446 77.1575 19.3213 77.1982 19.6143C77.2471 19.9072 77.2715 20.2083 77.2715 20.5176C77.2715 20.5583 77.2674 20.6234 77.2593 20.7129C77.2511 20.8024 77.2389 20.896 77.2227 20.9937C77.2064 21.0913 77.182 21.1768 77.1494 21.25C77.125 21.3232 77.0884 21.3599 77.0395 21.3599C76.95 21.3599 76.8931 21.3192 76.8686 21.2378C76.8524 21.1483 76.8361 21.0669 76.8198 20.9937C76.8035 20.896 76.7751 20.778 76.7344 20.6397C76.6937 20.5013 76.6489 20.363 76.6001 20.2246C76.5513 20.0781 76.5065 19.9479 76.4658 19.834C76.4251 19.7201 76.3966 19.6427 76.3804 19.6021C76.3071 19.4556 76.1647 19.3416 75.9531 19.2603C75.7415 19.1707 75.5015 19.1056 75.2329 19.0649C74.9725 19.0161 74.6999 18.9876 74.415 18.9795C74.1383 18.9632 73.8942 18.9551 73.6826 18.9551L73.3164 18.9551C73.1862 18.9551 73.1048 18.9836 73.0723 19.0405C73.0397 19.0894 73.0234 19.1707 73.0234 19.2847L73.0234 23.5693C73.0234 23.8135 73.1007 23.9681 73.2554 24.0332L76.9663 24.0332C77.1291 24.0332 77.2959 24.0332 77.4668 24.0332C77.6458 24.0251 77.7638 24.0047 77.8208 23.9722C77.9429 23.9396 78.0446 23.8704 78.126 23.7647C78.2155 23.6507 78.2887 23.5449 78.3457 23.4473C78.3701 23.4066 78.4149 23.3211 78.48 23.1909C78.5532 23.0607 78.6265 22.9224 78.6997 22.7759C78.7811 22.6213 78.8543 22.4788 78.9194 22.3486C78.9927 22.2184 79.0456 22.133 79.0781 22.0923C79.1269 21.9946 79.2083 21.9458 79.3223 21.9458C79.3955 21.9458 79.4484 21.9743 79.481 22.0313L79.481 23.8501C79.481 23.9233 79.4728 23.9925 79.4565 24.0576C79.4484 24.1146 79.4362 24.1878 79.4199 24.2773C79.3874 24.3913 79.3467 24.4686 79.2978 24.5093C79.249 24.5418 79.1554 24.5744 79.0171 24.6069C78.1951 24.6069 77.4139 24.6029 76.6733 24.5947C75.9409 24.5866 75.1963 24.5785 74.4394 24.5703C73.6826 24.5703 72.8851 24.5662 72.0469 24.5581C71.2087 24.55 70.2728 24.5459 69.2393 24.5459C69.1009 24.5459 69.0317 24.4767 69.0317 24.3384C69.0317 24.2489 69.0765 24.1797 69.166 24.1309C69.2555 24.082 69.3369 24.0495 69.4102 24.0332C69.459 24.0332 69.5363 24.0291 69.6421 24.021C69.756 24.0129 69.8781 24.0088 70.0083 24.0088C70.1385 24.0007 70.2646 23.9925 70.3867 23.9844C70.5088 23.9762 70.6146 23.9722 70.7041 23.9722C70.8994 23.9722 70.9971 23.8176 70.9971 23.5083L70.9971 14.4995C70.9971 14.3612 70.9808 14.1903 70.9482 13.9868C70.9238 13.7834 70.8709 13.6125 70.7895 13.4741C70.7326 13.4334 70.7041 13.4131 70.7041 13.4131L68.9951 13.2422C68.8405 13.2422 68.7632 13.1649 68.7632 13.0103C68.7632 12.9696 68.7713 12.9207 68.7876 12.8638C68.8039 12.7987 68.8568 12.7661 68.9463 12.7661L70.9482 12.7661C71.7295 12.7661 72.4985 12.762 73.2554 12.7539C74.0122 12.7458 74.708 12.7417 75.3428 12.7417L77.0762 12.7417C77.2064 12.7417 77.3407 12.7458 77.479 12.7539C77.6255 12.7539 77.7638 12.758 77.894 12.7661C78.0242 12.7661 78.1423 12.7702 78.248 12.7783C78.3538 12.7783 78.4352 12.7783 78.4922 12.7783C78.5492 12.7865 78.5939 12.8149 78.6265 12.8638C78.659 12.9126 78.6794 12.9736 78.6875 13.0469C78.7038 13.112 78.7119 13.1812 78.7119 13.2544C78.72 13.3195 78.7241 13.3724 78.7241 13.4131L78.7241 15.4028C78.7241 15.4761 78.6956 15.5127 78.6387 15.5127C78.5492 15.5127 78.48 15.4557 78.4311 15.3418C78.3905 15.2197 78.3254 15.0773 78.2358 14.9146C78.1626 14.7355 78.0731 14.5565 77.9673 14.3774C77.8615 14.1984 77.7842 14.0601 77.7353 13.9624C77.6621 13.8241 77.5482 13.7183 77.3936 13.645C77.2471 13.5636 77.0802 13.5026 76.8931 13.4619C76.7059 13.4131 76.5146 13.3765 76.3193 13.3521C76.124 13.3276 75.9531 13.2992 75.8066 13.2666C75.7578 13.2666 75.6317 13.2625 75.4282 13.2544C75.2248 13.2463 74.9928 13.2422 74.7324 13.2422C74.4801 13.2341 74.2279 13.2259 73.9756 13.2178C73.7314 13.2096 73.5402 13.2056 73.4019 13.2056C73.231 13.2056 73.1252 13.2544 73.0845 13.3521C73.0438 13.4497 73.0234 13.5962 73.0234 13.7915L73.0234 18.1494C73.0234 18.2227 73.0478 18.2918 73.0967 18.3569C73.1536 18.4139 73.2269 18.4424 73.3164 18.4424ZM80.9702 24.3384C80.9702 24.2814 80.9987 24.2326 81.0557 24.1919C81.1208 24.1512 81.194 24.1187 81.2754 24.0942C81.3568 24.0698 81.43 24.0536 81.4951 24.0454C81.5684 24.0291 81.6172 24.021 81.6416 24.021L81.9224 24.021C82.02 24.021 82.1217 24.0169 82.2275 24.0088C82.3415 24.0007 82.4513 23.9925 82.5571 23.9844C82.6629 23.9681 82.7524 23.9518 82.8257 23.9356C82.9071 23.9193 82.964 23.8989 82.9966 23.8745C83.0942 23.7769 83.1431 23.5287 83.1431 23.1299L83.1431 13.7915C83.1431 13.523 83.0739 13.3765 82.9355 13.3521C82.6751 13.3276 82.37 13.3154 82.02 13.3154C81.841 13.3154 81.6742 13.3073 81.5195 13.291C81.373 13.2666 81.2306 13.2381 81.0923 13.2056C81.0109 13.1812 80.9702 13.1323 80.9702 13.0591C81.0272 12.9289 81.1126 12.8475 81.2266 12.8149C81.3486 12.7824 81.4748 12.7661 81.605 12.7661C81.8898 12.7661 82.1909 12.7824 82.5083 12.8149C82.8257 12.8394 83.0942 12.8516 83.314 12.8516C83.8511 12.8516 84.4045 12.8394 84.9741 12.8149C85.5519 12.7824 86.203 12.7661 86.9272 12.7661C87.2772 12.7661 87.6149 12.7702 87.9404 12.7783C88.2741 12.7865 88.6037 12.8109 88.9292 12.8516C89.0269 12.8678 89.1611 12.9045 89.332 12.9614C89.5111 13.0103 89.6942 13.0672 89.8813 13.1323C90.0767 13.1974 90.2557 13.2666 90.4185 13.3399C90.5894 13.405 90.7114 13.4579 90.7847 13.4985C91.8019 14.0519 92.571 14.764 93.0918 15.6348C93.6126 16.4974 93.873 17.5676 93.873 18.8452C93.8486 19.187 93.8161 19.5166 93.7754 19.834C93.7347 20.1514 93.6574 20.4688 93.5435 20.7861C93.4377 21.0954 93.2749 21.4087 93.0552 21.7261C92.8354 22.0435 92.5303 22.3771 92.1396 22.7271C91.9199 22.9061 91.688 23.0729 91.4438 23.2275C91.1997 23.3822 90.9596 23.5205 90.7236 23.6426C90.4958 23.7647 90.2801 23.8705 90.0767 23.96C89.8813 24.0413 89.7104 24.1024 89.564 24.1431C89.1652 24.2407 88.7827 24.318 88.4165 24.375C88.0503 24.432 87.6881 24.4727 87.3301 24.4971C86.972 24.5215 86.6058 24.5378 86.2314 24.5459C85.8652 24.5459 85.4787 24.5459 85.0718 24.5459L82.9722 24.5459L81.1411 24.5459C81.0272 24.5215 80.9702 24.4523 80.9702 24.3384ZM85.084 23.3618C85.084 23.5002 85.088 23.6263 85.0962 23.7402C85.1125 23.846 85.1572 23.9193 85.2305 23.96C85.2956 23.9762 85.381 23.9925 85.4868 24.0088C85.6007 24.0169 85.7228 24.0251 85.853 24.0332C85.9914 24.0332 86.1256 24.0332 86.2559 24.0332C86.3942 24.0332 86.5203 24.0332 86.6343 24.0332C87.0249 24.0332 87.3708 24.0047 87.6719 23.9478C87.9811 23.8827 88.2578 23.7972 88.5019 23.6914C88.7542 23.5856 88.978 23.4635 89.1733 23.3252C89.3768 23.1787 89.5721 23.0282 89.7593 22.8735C90.0522 22.605 90.3086 22.3202 90.5283 22.0191C90.7562 21.7179 90.9434 21.3924 91.0898 21.0425C91.2445 20.6844 91.3584 20.2979 91.4316 19.8828C91.513 19.4596 91.5537 18.9917 91.5537 18.479C91.5537 18.0965 91.5293 17.7425 91.4805 17.417C91.4316 17.0833 91.3503 16.77 91.2363 16.4771C91.1305 16.1841 90.9881 15.9033 90.8091 15.6348C90.63 15.3662 90.4144 15.0977 90.1621 14.8291C89.8773 14.5361 89.5721 14.2839 89.2466 14.0723C88.9292 13.8525 88.5955 13.6776 88.2456 13.5474C87.8957 13.409 87.5417 13.3073 87.1836 13.2422C86.8337 13.1771 86.4878 13.1445 86.146 13.1445C85.9344 13.1445 85.7391 13.173 85.5601 13.23C85.381 13.2788 85.2223 13.405 85.084 13.6084L85.084 23.3618ZM99.4272 13.523L99.4272 23.0933C99.4272 23.134 99.4313 23.195 99.4394 23.2764C99.4476 23.3578 99.4598 23.4432 99.4761 23.5327C99.5005 23.6141 99.533 23.6873 99.5737 23.7525C99.6144 23.8176 99.6714 23.8501 99.7446 23.8501L101.087 23.8501C101.177 23.8501 101.25 23.8867 101.307 23.96C101.372 24.0332 101.405 24.1146 101.405 24.2041C101.405 24.2774 101.368 24.3547 101.295 24.436C101.222 24.5093 101.148 24.5459 101.075 24.5459L97.2422 24.5459C97.0794 24.5459 96.9167 24.55 96.7539 24.5581C96.5911 24.5744 96.4121 24.5825 96.2168 24.5825C96.1029 24.5825 95.993 24.5785 95.8872 24.5703C95.7814 24.5622 95.6838 24.5459 95.5942 24.5215C95.5454 24.4889 95.521 24.4116 95.521 24.2896C95.521 24.1187 95.5617 24.021 95.6431 23.9966C95.8465 23.964 96.0215 23.9396 96.168 23.9233C96.3144 23.8989 96.4691 23.8867 96.6318 23.8867C96.762 23.8867 96.8516 23.8867 96.9004 23.8867C96.9574 23.8786 97.0225 23.8664 97.0957 23.8501C97.2096 23.8013 97.2666 23.6304 97.2666 23.3374L97.2666 13.6084C97.2666 13.5108 97.2178 13.4253 97.1201 13.3521C97.0306 13.2707 96.9411 13.23 96.8516 13.23C96.6644 13.23 96.5179 13.2463 96.4121 13.2788C96.3145 13.3032 96.1842 13.3154 96.0215 13.3154C95.9157 13.3154 95.8099 13.3073 95.7041 13.291C95.5983 13.2666 95.4925 13.2381 95.3867 13.2056C95.3298 13.1812 95.3013 13.1323 95.3013 13.0591C95.2769 12.9533 95.285 12.8678 95.3257 12.8027C95.3745 12.7376 95.4396 12.6888 95.521 12.6563C95.6024 12.6156 95.6919 12.5912 95.7895 12.583C95.8953 12.5749 95.993 12.5708 96.0825 12.5708L100.477 12.5708C100.689 12.5708 100.823 12.5708 100.88 12.5708C100.937 12.5708 100.973 12.5789 100.99 12.5952C101.144 12.6196 101.222 12.7092 101.222 12.8638C101.222 13.0347 101.128 13.1445 100.941 13.1934C100.754 13.2422 100.546 13.2707 100.318 13.2788C100.099 13.287 99.8952 13.3032 99.708 13.3276C99.5208 13.3439 99.4272 13.409 99.4272 13.523ZM111.903 13.0957L111.903 15.7813C111.903 15.8789 111.874 15.9684 111.817 16.0498C111.769 16.1231 111.699 16.1597 111.61 16.1597C111.488 16.1597 111.378 16.1027 111.28 15.9888C111.191 15.8748 111.109 15.7446 111.036 15.5982C110.963 15.4435 110.894 15.2889 110.829 15.1343C110.772 14.9797 110.715 14.8576 110.658 14.7681C110.568 14.646 110.483 14.5402 110.401 14.4507C110.328 14.353 110.247 14.2676 110.157 14.1943C110.068 14.113 109.97 14.0397 109.864 13.9746C109.758 13.9095 109.64 13.8444 109.51 13.7793C109.315 13.6817 109.091 13.6043 108.839 13.5474C108.595 13.4904 108.306 13.4619 107.972 13.4619C107.647 13.4619 107.317 13.5433 106.983 13.7061C106.65 13.8607 106.381 14.0804 106.178 14.3652C106.023 14.5768 105.881 14.821 105.75 15.0977C105.628 15.3744 105.519 15.6755 105.421 16.001C105.331 16.3184 105.262 16.652 105.213 17.002C105.165 17.3438 105.14 17.6815 105.14 18.0151C105.14 18.1128 105.148 18.2878 105.165 18.54C105.181 18.7842 105.209 19.0609 105.25 19.3701C105.299 19.6794 105.364 19.9968 105.445 20.3223C105.535 20.6478 105.653 20.9367 105.799 21.189C106.109 21.7993 106.52 22.2998 107.032 22.6904C107.553 23.0811 108.155 23.2845 108.839 23.3008C109.042 23.3008 109.238 23.2764 109.425 23.2276C109.62 23.1787 109.799 23.1177 109.962 23.0444C109.994 23.0282 110.047 22.9956 110.121 22.9468C110.194 22.898 110.271 22.8451 110.353 22.7881C110.434 22.723 110.511 22.6579 110.584 22.5928C110.666 22.5277 110.727 22.4748 110.768 22.4341C110.873 22.312 110.971 22.1777 111.061 22.0313C111.15 21.8848 111.223 21.7424 111.28 21.604C111.345 21.4575 111.398 21.3273 111.439 21.2134C111.48 21.0913 111.508 20.9977 111.524 20.9326C111.549 20.835 111.626 20.7861 111.756 20.7861C111.797 20.7861 111.83 20.8065 111.854 20.8472C111.878 20.8879 111.895 20.9367 111.903 20.9937C111.919 21.0425 111.927 21.0913 111.927 21.1401C111.935 21.189 111.939 21.2256 111.939 21.25C111.939 21.7464 111.83 22.194 111.61 22.5928C111.398 22.9915 111.109 23.3333 110.743 23.6182C110.393 23.903 110.015 24.1309 109.608 24.3018C109.201 24.4645 108.77 24.5459 108.314 24.5459C107.752 24.5459 107.236 24.4808 106.764 24.3506C106.3 24.2123 105.877 24.0291 105.494 23.8013C105.12 23.5653 104.786 23.2886 104.493 22.9712C104.208 22.6457 103.96 22.2957 103.749 21.9214C103.488 21.4657 103.281 20.9448 103.126 20.3589C102.979 19.773 102.906 19.2033 102.906 18.6499C102.906 17.7629 103.106 16.9369 103.504 16.1719C103.903 15.3988 104.485 14.6704 105.25 13.9868C105.706 13.6043 106.166 13.3073 106.629 13.0957C107.101 12.8841 107.634 12.7783 108.229 12.7783C108.465 12.7783 108.684 12.7905 108.888 12.815C109.099 12.8312 109.311 12.8678 109.522 12.9248C109.742 12.9736 109.97 13.0428 110.206 13.1323C110.442 13.2219 110.707 13.3317 111 13.4619C111.008 13.4701 111.032 13.4741 111.073 13.4741C111.17 13.4741 111.244 13.4456 111.292 13.3887C111.341 13.3317 111.382 13.2666 111.415 13.1934C111.455 13.1201 111.496 13.055 111.537 12.9981C111.577 12.9411 111.642 12.9126 111.732 12.9126C111.764 12.9126 111.801 12.933 111.842 12.9736C111.882 13.0143 111.903 13.055 111.903 13.0957ZM112.855 24.2041C112.855 24.1716 112.879 24.1227 112.928 24.0576C112.969 23.9925 113.034 23.96 113.124 23.96C113.254 23.96 113.392 23.9396 113.539 23.8989C113.693 23.8582 113.84 23.7972 113.978 23.7158C114.125 23.6263 114.259 23.5165 114.381 23.3862C114.511 23.2479 114.621 23.0851 114.71 22.898L117.945 15.2319C117.953 15.2157 117.97 15.179 117.994 15.1221C118.027 15.057 118.043 15.0041 118.043 14.9634C118.043 14.8739 118.023 14.7844 117.982 14.6948C117.941 14.6053 117.892 14.5239 117.835 14.4507C117.787 14.3693 117.742 14.3001 117.701 14.2432C117.66 14.1781 117.64 14.1211 117.64 14.0723C117.64 13.9909 117.669 13.9258 117.726 13.877C117.783 13.8281 117.848 13.7915 117.921 13.7671C118.002 13.7346 118.088 13.7142 118.177 13.7061C118.267 13.6979 118.344 13.6857 118.409 13.6694C118.482 13.6369 118.564 13.584 118.653 13.5108C118.743 13.4294 118.816 13.3643 118.873 13.3154C118.897 13.2748 118.918 13.2219 118.934 13.1568C118.95 13.0916 118.967 13.0306 118.983 12.9736C119.007 12.9167 119.036 12.8679 119.068 12.8272C119.109 12.7865 119.162 12.7661 119.227 12.7661C119.39 12.7661 119.487 12.8353 119.52 12.9736L123.011 23.4229C123.06 23.5775 123.113 23.6996 123.17 23.7891C123.235 23.8705 123.312 23.9315 123.402 23.9722C123.491 24.0129 123.589 24.0373 123.695 24.0454C123.809 24.0536 123.939 24.0576 124.085 24.0576L124.525 24.0576C124.598 24.0576 124.655 24.0658 124.696 24.082C124.736 24.082 124.781 24.1105 124.83 24.1675C124.887 24.2245 124.916 24.2733 124.916 24.314C124.916 24.4442 124.842 24.5134 124.696 24.5215C124.68 24.5378 124.623 24.5459 124.525 24.5459L123.829 24.5459C123.593 24.5459 123.32 24.5337 123.011 24.5093C122.702 24.4767 122.393 24.4605 122.083 24.4605C121.579 24.4605 121.091 24.4767 120.619 24.5093C120.147 24.5337 119.728 24.5459 119.361 24.5459C119.321 24.5459 119.276 24.5378 119.227 24.5215C119.186 24.5052 119.166 24.4727 119.166 24.4238C119.166 24.375 119.186 24.3262 119.227 24.2774C119.268 24.2285 119.317 24.1838 119.374 24.1431C119.43 24.0943 119.492 24.0576 119.557 24.0332C119.63 24.0088 119.695 23.9966 119.752 23.9966C119.833 23.9966 119.915 24.0007 119.996 24.0088C120.077 24.0169 120.167 24.021 120.265 24.021C120.525 24.021 120.737 23.9925 120.899 23.9356C121.038 23.8867 121.107 23.7891 121.107 23.6426C121.107 23.6263 121.103 23.606 121.095 23.5816C121.087 23.5571 121.078 23.5205 121.07 23.4717C121.038 23.3985 120.985 23.2642 120.912 23.0689C120.838 22.8654 120.761 22.6457 120.68 22.4097C120.598 22.1737 120.517 21.9458 120.436 21.7261C120.362 21.5064 120.305 21.3355 120.265 21.2134C120.232 21.1401 120.195 21.071 120.155 21.0059C120.122 20.9326 120.061 20.896 119.972 20.896L116.542 20.896C116.338 20.896 116.208 20.9937 116.151 21.189L115.663 22.959C115.646 23.016 115.634 23.0648 115.626 23.1055C115.618 23.1462 115.614 23.2031 115.614 23.2764C115.614 23.4066 115.622 23.5124 115.638 23.5938C115.663 23.667 115.695 23.728 115.736 23.7769C115.785 23.8257 115.846 23.8623 115.919 23.8867C116 23.903 116.102 23.9193 116.224 23.9356C116.265 23.9356 116.33 23.9437 116.419 23.96C116.517 23.9681 116.619 23.9803 116.725 23.9966C116.83 24.0129 116.928 24.0291 117.018 24.0454C117.115 24.0536 117.184 24.0576 117.225 24.0576C117.266 24.0739 117.323 24.1146 117.396 24.1797C117.477 24.2367 117.518 24.3018 117.518 24.375C117.518 24.4157 117.502 24.4564 117.469 24.4971C117.437 24.5296 117.376 24.5459 117.286 24.5459L116.908 24.5459C116.778 24.5459 116.598 24.5418 116.371 24.5337C116.151 24.5256 115.927 24.5215 115.699 24.5215C115.479 24.5215 115.215 24.5256 114.906 24.5337C114.597 24.5418 114.279 24.5459 113.954 24.5459C113.913 24.5459 113.832 24.5418 113.709 24.5337C113.587 24.5174 113.461 24.4971 113.331 24.4727C113.209 24.4401 113.099 24.4035 113.001 24.3628C112.904 24.314 112.855 24.2611 112.855 24.2041ZM116.627 19.8096C116.619 19.8259 116.615 19.8706 116.615 19.9439L116.615 20.0049C116.615 20.0944 116.639 20.1717 116.688 20.2368C116.745 20.2938 116.818 20.3223 116.908 20.3223C117.404 20.3223 117.872 20.3426 118.312 20.3833C118.759 20.4159 119.19 20.4321 119.605 20.4321C119.695 20.4321 119.764 20.4077 119.813 20.3589C119.862 20.3019 119.886 20.249 119.886 20.2002L119.886 20.0659C119.886 20.0497 119.882 20.0334 119.874 20.0171C119.858 19.9927 119.846 19.952 119.837 19.895L118.531 16.1841C118.466 16.0132 118.389 15.9277 118.299 15.9277C118.259 15.9277 118.214 15.944 118.165 15.9766C118.116 16.0091 118.084 16.0417 118.067 16.0742L116.627 19.8096ZM125.672 24.314C125.672 24.1268 125.754 24.021 125.916 23.9966L126.38 23.9966C126.527 23.9966 126.661 23.9966 126.783 23.9966C126.905 23.9885 127.011 23.9722 127.101 23.9478C127.19 23.9234 127.259 23.8827 127.308 23.8257C127.365 23.7687 127.394 23.6914 127.394 23.5938L127.394 13.7549C127.394 13.6654 127.357 13.5921 127.284 13.5352C127.21 13.4701 127.129 13.4375 127.04 13.4375L126.173 13.4375L125.941 13.4375C125.9 13.4375 125.851 13.4334 125.794 13.4253C125.737 13.4172 125.672 13.409 125.599 13.4009C125.558 13.3846 125.522 13.3521 125.489 13.3032C125.465 13.2544 125.453 13.2096 125.453 13.169C125.453 13.0143 125.55 12.937 125.746 12.937L128.749 12.937C128.773 12.937 128.834 12.933 128.932 12.9248C129.037 12.9167 129.147 12.9085 129.261 12.9004C129.375 12.8923 129.477 12.8841 129.566 12.876C129.656 12.8679 129.709 12.8638 129.725 12.8638C129.839 12.8556 129.965 12.8475 130.104 12.8394C130.25 12.8312 130.368 12.8272 130.458 12.8272C130.482 12.8272 130.527 12.8312 130.592 12.8394C130.657 12.8394 130.726 12.8434 130.799 12.8516C130.873 12.8516 130.942 12.8556 131.007 12.8638C131.08 12.8638 131.129 12.8638 131.153 12.8638C131.267 12.8882 131.324 12.9533 131.324 13.0591C131.324 13.1486 131.296 13.2381 131.239 13.3277C131.19 13.3846 131.113 13.4131 131.007 13.4131L129.664 13.4131C129.607 13.4131 129.562 13.4457 129.53 13.5108C129.497 13.5677 129.469 13.641 129.444 13.7305C129.428 13.8119 129.416 13.8973 129.408 13.9868C129.408 14.0763 129.408 14.1537 129.408 14.2188C129.408 14.6419 129.428 15.0651 129.469 15.4883C129.509 15.9033 129.53 16.3794 129.53 16.9165L129.53 23.6548C129.53 23.7118 129.542 23.7809 129.566 23.8623C129.599 23.9356 129.652 23.9722 129.725 23.9722L133.631 23.9722C133.851 23.9722 134.059 23.8745 134.254 23.6792C134.449 23.4839 134.628 23.256 134.791 22.9956C134.962 22.7352 135.108 22.4789 135.23 22.2266C135.361 21.9662 135.466 21.7749 135.548 21.6528C135.597 21.5959 135.646 21.5674 135.694 21.5674C135.735 21.5674 135.772 21.604 135.804 21.6773C135.837 21.7912 135.853 21.8929 135.853 21.9824C135.861 22.0638 135.865 22.1859 135.865 22.3486C135.865 22.4138 135.853 22.5114 135.829 22.6416C135.812 22.7637 135.788 22.8939 135.755 23.0322C135.731 23.1706 135.707 23.3049 135.682 23.4351C135.666 23.5571 135.658 23.6548 135.658 23.728C135.658 23.7687 135.658 23.8257 135.658 23.8989C135.658 23.964 135.654 24.0332 135.646 24.1065C135.646 24.1797 135.641 24.2489 135.633 24.314C135.625 24.3709 135.613 24.4116 135.597 24.4361C135.483 24.5093 135.381 24.5459 135.291 24.5459C134.274 24.5459 133.188 24.5378 132.032 24.5215C130.877 24.4971 129.725 24.4849 128.578 24.4849C128.374 24.4849 128.163 24.4889 127.943 24.4971C127.723 24.5052 127.512 24.5174 127.308 24.5337C127.105 24.5418 126.909 24.55 126.722 24.5581C126.543 24.5663 126.389 24.5703 126.258 24.5703C126.087 24.5703 125.945 24.5622 125.831 24.5459C125.725 24.5215 125.672 24.4442 125.672 24.314ZM145.045 23.5327L145.045 14.9756C145.045 14.7233 145.053 14.3775 145.069 13.938C145.086 13.4904 145.106 13.0103 145.13 12.4976C145.155 11.9849 145.175 11.464 145.191 10.9351C145.208 10.4061 145.216 9.93003 145.216 9.50685C145.216 8.93719 145.191 8.52215 145.143 8.26174C145.126 8.10711 145.061 7.98504 144.947 7.89553C144.841 7.79787 144.707 7.72463 144.544 7.6758C144.39 7.61883 144.211 7.58221 144.007 7.56594C143.812 7.54152 143.621 7.52118 143.434 7.5049C143.255 7.48049 143.084 7.46014 142.921 7.44386C142.766 7.41945 142.644 7.38283 142.555 7.334C142.449 7.27704 142.396 7.20786 142.396 7.12648C142.396 7.06138 142.4 7.01662 142.408 6.9922C142.424 6.96779 142.449 6.94745 142.481 6.93117C142.579 6.89862 142.673 6.87827 142.762 6.87013C142.86 6.85386 142.945 6.84572 143.019 6.84572L143.482 6.84572C143.849 6.84572 144.162 6.85386 144.422 6.87013C144.691 6.87827 144.939 6.89455 145.167 6.91896C145.395 6.93524 145.619 6.95151 145.838 6.96779C146.058 6.97593 146.306 6.98 146.583 6.98C146.884 6.98 147.161 6.96372 147.413 6.93117C147.674 6.89862 147.918 6.862 148.146 6.82131C148.382 6.78062 148.605 6.744 148.817 6.71144C149.037 6.67889 149.256 6.66262 149.476 6.66262L149.916 6.66262C150.005 6.66262 150.103 6.67075 150.208 6.68703C150.314 6.70331 150.367 6.76434 150.367 6.87014C150.367 7.00848 150.274 7.10614 150.086 7.1631C149.948 7.20379 149.785 7.24042 149.598 7.27297C149.419 7.29738 149.216 7.35435 148.988 7.44387C148.776 7.49269 148.601 7.54559 148.463 7.60256C148.333 7.65952 148.235 7.70428 148.17 7.73683C148.08 7.7938 147.999 7.86704 147.926 7.95656C147.861 8.04608 147.828 8.17629 147.828 8.34719L147.828 23.0689C147.828 23.2479 147.877 23.3862 147.975 23.4839C148.072 23.5816 148.194 23.6548 148.341 23.7036C148.495 23.7525 148.658 23.7809 148.829 23.7891C149.008 23.7972 149.175 23.8013 149.33 23.8013C149.509 23.8013 149.761 23.7931 150.086 23.7769C150.412 23.7606 150.754 23.7362 151.112 23.7036C151.47 23.6711 151.816 23.6304 152.149 23.5816C152.491 23.5246 152.768 23.4595 152.979 23.3862C153.264 23.2886 153.525 23.1909 153.761 23.0933C154.005 22.9875 154.208 22.8573 154.371 22.7027C154.396 22.6864 154.436 22.6538 154.493 22.605C154.55 22.548 154.611 22.4829 154.676 22.4097C154.75 22.3283 154.819 22.2429 154.884 22.1533C154.949 22.0638 155.006 21.9743 155.055 21.8848C155.104 21.8197 155.144 21.7627 155.177 21.7139C155.217 21.6651 155.254 21.6244 155.287 21.5918C155.319 21.5511 155.36 21.482 155.409 21.3843C155.458 21.2866 155.51 21.1768 155.567 21.0547C155.632 20.9326 155.698 20.8106 155.763 20.6885C155.828 20.5583 155.893 20.4362 155.958 20.3223C156.015 20.249 156.068 20.188 156.117 20.1392C156.174 20.0904 156.247 20.0659 156.336 20.0659C156.426 20.0659 156.475 20.1188 156.483 20.2246C156.499 20.3223 156.507 20.4199 156.507 20.5176C156.507 20.7129 156.483 20.9123 156.434 21.1157C156.393 21.3111 156.345 21.5064 156.288 21.7017C156.231 21.897 156.17 22.0923 156.104 22.2876C156.039 22.4829 155.991 22.6782 155.958 22.8736C155.917 23.0607 155.889 23.256 155.873 23.4595C155.864 23.6548 155.844 23.8379 155.812 24.0088C155.787 24.1716 155.734 24.3058 155.653 24.4116C155.58 24.5174 155.458 24.5703 155.287 24.5703L146.937 24.5703C146.432 24.5703 146.009 24.5785 145.667 24.5947C145.334 24.6192 145.029 24.6436 144.752 24.668C144.475 24.7005 144.199 24.725 143.922 24.7412C143.653 24.7656 143.336 24.7778 142.97 24.7778C142.831 24.7778 142.713 24.7656 142.616 24.7412C142.526 24.7168 142.453 24.6517 142.396 24.5459C142.388 24.5134 142.38 24.4889 142.372 24.4727C142.363 24.4564 142.359 24.4035 142.359 24.314C142.359 24.2082 142.404 24.1349 142.494 24.0943C142.591 24.0454 142.665 24.0129 142.713 23.9966C142.803 23.9803 142.937 23.9722 143.116 23.9722C143.295 23.964 143.458 23.9518 143.604 23.9356C143.678 23.9274 143.771 23.9152 143.885 23.8989C143.999 23.8827 144.121 23.8583 144.251 23.8257C144.39 23.7931 144.528 23.7525 144.666 23.7036C144.805 23.6548 144.931 23.5978 145.045 23.5327ZM157.777 18.7964C157.777 18.3163 157.822 17.8809 157.911 17.4903C158.001 17.0915 158.135 16.7212 158.314 16.3794C158.493 16.0376 158.713 15.7162 158.973 15.4151C159.242 15.1058 159.547 14.8047 159.889 14.5117C160.157 14.2839 160.446 14.0967 160.755 13.9502C161.065 13.8037 161.382 13.6898 161.708 13.6084C162.041 13.5189 162.383 13.4579 162.733 13.4253C163.083 13.3928 163.429 13.3765 163.771 13.3765C164.063 13.3765 164.373 13.4212 164.698 13.5108C165.032 13.6003 165.353 13.7183 165.663 13.8648C165.972 14.0031 166.257 14.1577 166.517 14.3286C166.778 14.4914 166.993 14.6501 167.164 14.8047C167.758 15.3662 168.218 15.9766 168.543 16.6358C168.869 17.2868 169.032 18.003 169.032 18.7842C169.032 19.2074 168.999 19.598 168.934 19.9561C168.877 20.306 168.788 20.6356 168.666 20.9448C168.552 21.2541 168.405 21.5471 168.226 21.8238C168.055 22.1004 167.856 22.3731 167.628 22.6416C167.416 22.8776 167.164 23.1096 166.871 23.3374C166.586 23.5653 166.269 23.7687 165.919 23.9478C165.569 24.1268 165.191 24.2733 164.784 24.3872C164.385 24.493 163.97 24.5459 163.539 24.5459C162.798 24.5459 162.114 24.4483 161.488 24.2529C160.869 24.0495 160.291 23.6955 159.754 23.1909C158.436 22.0435 157.777 20.5786 157.777 18.7964ZM163.429 13.9014C163.062 13.9014 162.749 13.9421 162.489 14.0235C162.236 14.0967 162.009 14.2066 161.805 14.353C161.61 14.4914 161.431 14.6623 161.268 14.8657C161.105 15.0692 160.938 15.2971 160.768 15.5493C160.458 16.0295 160.255 16.5422 160.157 17.0874C160.06 17.6245 160.011 18.1698 160.011 18.7232C160.011 19.3579 160.072 19.9927 160.194 20.6275C160.324 21.2541 160.572 21.8644 160.938 22.4585C161.036 22.6294 161.174 22.8085 161.354 22.9956C161.533 23.1747 161.728 23.3415 161.939 23.4961C162.151 23.6426 162.367 23.7687 162.586 23.8745C162.814 23.9722 163.026 24.021 163.221 24.021C163.604 24.021 163.937 23.9559 164.222 23.8257C164.515 23.6955 164.776 23.5246 165.003 23.313C165.231 23.0933 165.431 22.8451 165.602 22.5684C165.781 22.2835 165.951 21.9906 166.114 21.6895C166.318 21.2907 166.464 20.8635 166.554 20.4077C166.651 19.9439 166.7 19.4434 166.7 18.9063C166.7 18.5238 166.672 18.1657 166.615 17.8321C166.566 17.4984 166.485 17.1769 166.371 16.8677C166.265 16.5585 166.131 16.2573 165.968 15.9644C165.805 15.6633 165.614 15.3581 165.394 15.0488C165.174 14.7152 164.894 14.4426 164.552 14.231C164.218 14.0113 163.844 13.9014 163.429 13.9014ZM175.306 24.3994L171.717 13.5474C171.685 13.4741 171.587 13.4212 171.424 13.3887C171.262 13.348 171.099 13.3277 170.936 13.3277L170.533 13.3277C170.468 13.3277 170.399 13.3236 170.326 13.3155C170.252 13.2992 170.183 13.2788 170.118 13.2544C170.053 13.2219 170 13.1852 169.959 13.1446C169.919 13.0957 169.898 13.0388 169.898 12.9737C169.898 12.7865 169.976 12.6929 170.13 12.6929L170.643 12.6929C170.708 12.6929 170.798 12.697 170.912 12.7051C171.026 12.7132 171.144 12.7214 171.266 12.7295C171.396 12.7377 171.526 12.7458 171.656 12.7539C171.786 12.7621 171.9 12.7661 171.998 12.7661C172.063 12.7661 172.185 12.7621 172.364 12.7539C172.543 12.7458 172.747 12.7377 172.975 12.7295C173.211 12.7132 173.451 12.697 173.695 12.6807C173.947 12.6644 174.179 12.6522 174.391 12.6441C174.61 12.6278 174.793 12.6156 174.94 12.6074C175.095 12.5993 175.188 12.5952 175.221 12.5952C175.465 12.5952 175.587 12.7092 175.587 12.937C175.587 13.0021 175.522 13.055 175.392 13.0957C175.27 13.1364 175.119 13.173 174.94 13.2056C174.769 13.2381 174.594 13.2707 174.415 13.3032C174.236 13.3277 174.098 13.3521 174 13.3765C173.959 13.4009 173.939 13.4497 173.939 13.523C173.939 13.5392 173.943 13.5555 173.951 13.5718C173.951 13.5881 173.959 13.6288 173.976 13.6939L176.515 21.3599C176.539 21.4331 176.559 21.4779 176.576 21.4942C176.584 21.5104 176.592 21.5145 176.6 21.5064C176.625 21.5064 176.653 21.486 176.686 21.4453C176.718 21.3965 176.751 21.3395 176.783 21.2744C176.824 21.2093 176.856 21.1402 176.881 21.0669C176.913 20.9855 176.938 20.9123 176.954 20.8472C177.263 19.9601 177.56 19.0812 177.845 18.2105C178.13 17.3316 178.439 16.4649 178.773 15.6104C178.887 15.3011 178.997 15.0122 179.103 14.7437C179.208 14.4751 179.261 14.174 179.261 13.8404C179.261 13.7264 179.253 13.6166 179.237 13.5108C179.221 13.405 179.192 13.3317 179.151 13.291C179.127 13.2666 179.078 13.2463 179.005 13.23C178.932 13.2056 178.85 13.1893 178.761 13.1812C178.679 13.1649 178.594 13.1527 178.504 13.1446C178.423 13.1364 178.358 13.1283 178.309 13.1201C178.268 13.1201 178.195 13.1201 178.089 13.1201C177.992 13.112 177.89 13.0957 177.784 13.0713C177.678 13.0469 177.585 13.0103 177.503 12.9614C177.43 12.9126 177.394 12.8475 177.394 12.7661C177.394 12.6603 177.418 12.5952 177.467 12.5708C177.475 12.5464 177.536 12.5342 177.65 12.5342L177.821 12.5342C177.935 12.5342 178.093 12.5423 178.297 12.5586C178.508 12.5749 178.736 12.5912 178.98 12.6074C179.233 12.6237 179.489 12.64 179.75 12.6563C180.018 12.6725 180.262 12.6807 180.482 12.6807L181.202 12.6807C181.406 12.6807 181.621 12.6725 181.849 12.6563C182.077 12.6319 182.26 12.6197 182.398 12.6197C182.561 12.6197 182.679 12.64 182.752 12.6807C182.834 12.7132 182.875 12.7987 182.875 12.937C182.875 13.0347 182.793 13.1161 182.63 13.1812C182.476 13.2381 182.289 13.291 182.069 13.3399C181.857 13.3806 181.646 13.4212 181.434 13.4619C181.222 13.5026 181.068 13.5515 180.97 13.6084C180.783 13.7305 180.604 13.9095 180.433 14.1455C180.262 14.3734 180.104 14.6175 179.957 14.878C179.819 15.1302 179.697 15.3825 179.591 15.6348C179.485 15.8871 179.404 16.0987 179.347 16.2696C179.013 17.0834 178.651 17.9541 178.26 18.8819C177.878 19.8096 177.499 20.7211 177.125 21.6162C177.101 21.6813 177.044 21.8197 176.954 22.0313C176.865 22.2429 176.771 22.4707 176.673 22.7149C176.576 22.959 176.482 23.195 176.393 23.4229C176.311 23.6426 176.254 23.8054 176.222 23.9112C176.181 24.0332 176.136 24.1594 176.087 24.2896C176.047 24.4116 176.002 24.5215 175.953 24.6192C175.904 24.725 175.855 24.8104 175.807 24.8755C175.766 24.9406 175.725 24.9732 175.685 24.9732C175.644 24.9732 175.603 24.9488 175.562 24.8999C175.53 24.8511 175.497 24.7941 175.465 24.729C175.432 24.6639 175.404 24.5988 175.379 24.5337C175.355 24.4686 175.331 24.4239 175.306 24.3994ZM187.574 18.4424L189.662 18.357C189.987 18.3325 190.235 18.2552 190.406 18.125C190.577 17.9867 190.703 17.8239 190.785 17.6367C190.874 17.4414 190.939 17.2298 190.98 17.002C191.029 16.7741 191.098 16.5503 191.187 16.3306C191.212 16.2329 191.253 16.1841 191.31 16.1841C191.423 16.1841 191.48 16.2126 191.48 16.2696L191.48 16.7578C191.48 17.0834 191.464 17.4374 191.432 17.8198C191.407 18.1942 191.395 18.5157 191.395 18.7842C191.395 19.0446 191.415 19.3213 191.456 19.6143C191.505 19.9073 191.529 20.2084 191.529 20.5176C191.529 20.5583 191.525 20.6234 191.517 20.7129C191.509 20.8024 191.497 20.896 191.48 20.9937C191.464 21.0913 191.44 21.1768 191.407 21.25C191.383 21.3233 191.346 21.3599 191.297 21.3599C191.208 21.3599 191.151 21.3192 191.126 21.2378C191.11 21.1483 191.094 21.0669 191.078 20.9937C191.061 20.896 191.033 20.778 190.992 20.6397C190.951 20.5013 190.907 20.363 190.858 20.2246C190.809 20.0782 190.764 19.9479 190.724 19.834C190.683 19.7201 190.654 19.6428 190.638 19.6021C190.565 19.4556 190.423 19.3417 190.211 19.2603C189.999 19.1708 189.759 19.1057 189.491 19.065C189.23 19.0161 188.958 18.9877 188.673 18.9795C188.396 18.9632 188.152 18.9551 187.94 18.9551L187.574 18.9551C187.444 18.9551 187.363 18.9836 187.33 19.0406C187.298 19.0894 187.281 19.1708 187.281 19.2847L187.281 23.5694C187.281 23.8135 187.359 23.9681 187.513 24.0332L191.224 24.0332C191.387 24.0332 191.554 24.0332 191.725 24.0332C191.904 24.0251 192.022 24.0047 192.079 23.9722C192.201 23.9396 192.302 23.8705 192.384 23.7647C192.473 23.6507 192.547 23.5449 192.604 23.4473C192.628 23.4066 192.673 23.3212 192.738 23.1909C192.811 23.0607 192.884 22.9224 192.958 22.7759C193.039 22.6213 193.112 22.4789 193.177 22.3487C193.25 22.2185 193.303 22.133 193.336 22.0923C193.385 21.9947 193.466 21.9458 193.58 21.9458C193.653 21.9458 193.706 21.9743 193.739 22.0313L193.739 23.8501C193.739 23.9234 193.731 23.9925 193.714 24.0576C193.706 24.1146 193.694 24.1879 193.678 24.2774C193.645 24.3913 193.604 24.4686 193.556 24.5093C193.507 24.5419 193.413 24.5744 193.275 24.607C192.453 24.607 191.672 24.6029 190.931 24.5948C190.199 24.5866 189.454 24.5785 188.697 24.5703C187.94 24.5703 187.143 24.5663 186.305 24.5581C185.466 24.55 184.531 24.5459 183.497 24.5459C183.359 24.5459 183.29 24.4767 183.29 24.3384C183.29 24.2489 183.334 24.1797 183.424 24.1309C183.513 24.0821 183.595 24.0495 183.668 24.0332C183.717 24.0332 183.794 24.0292 183.9 24.021C184.014 24.0129 184.136 24.0088 184.266 24.0088C184.396 24.0007 184.522 23.9925 184.645 23.9844C184.767 23.9763 184.872 23.9722 184.962 23.9722C185.157 23.9722 185.255 23.8176 185.255 23.5083L185.255 14.4995C185.255 14.3612 185.239 14.1903 185.206 13.9868C185.182 13.7834 185.129 13.6125 185.047 13.4741C184.99 13.4335 184.962 13.4131 184.962 13.4131L183.253 13.2422C183.098 13.2422 183.021 13.1649 183.021 13.0103C183.021 12.9696 183.029 12.9208 183.045 12.8638C183.062 12.7987 183.115 12.7661 183.204 12.7661L185.206 12.7661C185.987 12.7661 186.756 12.7621 187.513 12.7539C188.27 12.7458 188.966 12.7417 189.601 12.7417L191.334 12.7417C191.464 12.7417 191.598 12.7458 191.737 12.7539C191.883 12.7539 192.022 12.758 192.152 12.7661C192.282 12.7661 192.4 12.7702 192.506 12.7783C192.612 12.7783 192.693 12.7783 192.75 12.7783C192.807 12.7865 192.852 12.815 192.884 12.8638C192.917 12.9126 192.937 12.9737 192.945 13.0469C192.962 13.112 192.97 13.1812 192.97 13.2544C192.978 13.3195 192.982 13.3724 192.982 13.4131L192.982 15.4029C192.982 15.4761 192.953 15.5127 192.896 15.5127C192.807 15.5127 192.738 15.4558 192.689 15.3418C192.648 15.2198 192.583 15.0773 192.494 14.9146C192.42 14.7355 192.331 14.5565 192.225 14.3775C192.119 14.1984 192.042 14.0601 191.993 13.9624C191.92 13.8241 191.806 13.7183 191.651 13.645C191.505 13.5637 191.338 13.5026 191.151 13.4619C190.964 13.4131 190.772 13.3765 190.577 13.3521C190.382 13.3277 190.211 13.2992 190.064 13.2666C190.016 13.2666 189.889 13.2626 189.686 13.2544C189.483 13.2463 189.251 13.2422 188.99 13.2422C188.738 13.2341 188.486 13.2259 188.233 13.2178C187.989 13.2097 187.798 13.2056 187.66 13.2056C187.489 13.2056 187.383 13.2544 187.342 13.3521C187.302 13.4497 187.281 13.5962 187.281 13.7915L187.281 18.1494C187.281 18.2227 187.306 18.2919 187.354 18.357C187.411 18.4139 187.485 18.4424 187.574 18.4424Z" fill="#0152A8"/>
<path d="M26.3209 1.36572C24.7712 1.36572 23.2428 1.72653 21.8567 2.41957C20.4706 3.11261 19.265 4.11885 18.3351 5.3586C17.0781 3.68253 15.3255 2.44447 13.3258 1.81978C11.326 1.19509 9.18031 1.21545 7.19274 1.87798C5.20516 2.5405 3.47643 3.8116 2.25141 5.51123C1.02639 7.21085 0.367188 9.25283 0.367188 11.3479C0.367187 23.3099 16.9875 32.7431 17.6863 33.1424C17.8843 33.2537 18.108 33.311 18.3351 33.3088C18.5625 33.3126 18.7866 33.2552 18.984 33.1424C22.0447 31.3531 24.9155 29.2571 27.552 26.8869C33.3584 21.6629 36.3031 16.4388 36.3031 11.3479C36.3031 8.70048 35.2514 6.16147 33.3794 4.28944C31.5074 2.41742 28.9683 1.36572 26.3209 1.36572Z" fill="#0FE3AF"/>
</svg>
