<svg width="52" height="51" viewBox="0 0 52 51" fill="none" xmlns="http://www.w3.org/2000/svg">
<path d="M33.903 6.4485C29.3475 6.22696 26.8378 10.3634 26.1523 12.4594L26.4687 35.1579C26.3105 38.506 27.6392 45.0203 34.2194 44.2926C40.7996 43.565 42.0756 37.8996 41.891 35.1579C42.8006 34.9602 47.2691 32.7852 48.0995 26.2999C48.7639 21.1117 44.2373 18.1801 41.891 17.3629V16.572V13.9225C41.891 10.6403 39.5975 6.72541 33.903 6.4485Z" fill="#0FE3AF"/>
<path d="M26.1113 34.7321V15.8462" stroke="#0152A8" stroke-width="2" stroke-linecap="round" stroke-linejoin="round"/>
<path d="M18.2431 28.437C19.7995 28.437 21.3209 28.8985 22.615 29.7632C23.909 30.6279 24.9177 31.8569 25.5132 33.2947C26.1088 34.7326 26.2647 36.3149 25.961 37.8413C25.6574 39.3678 24.908 40.7699 23.8074 41.8704C22.7069 42.9709 21.3048 43.7204 19.7783 44.024C18.2519 44.3277 16.6696 44.1718 15.2318 43.5762C13.7939 42.9806 12.5649 41.972 11.7002 40.678C10.8355 39.3839 10.374 37.8625 10.374 36.3061V34.988" stroke="#0152A8" stroke-width="2" stroke-linecap="round" stroke-linejoin="round"/>
<path d="M33.9804 28.437C32.4241 28.437 30.9027 28.8985 29.6086 29.7632C28.3145 30.6279 27.3059 31.8569 26.7103 33.2947C26.1147 34.7326 25.9589 36.3149 26.2625 37.8413C26.5662 39.3678 27.3156 40.7699 28.4161 41.8704C29.5167 42.9709 30.9188 43.7204 32.4453 44.024C33.9717 44.3277 35.5539 44.1718 36.9918 43.5762C38.4297 42.9806 39.6587 41.972 40.5234 40.678C41.388 39.3839 41.8496 37.8625 41.8496 36.3061V34.988" stroke="#0152A8" stroke-width="2" stroke-linecap="round" stroke-linejoin="round"/>
<path d="M15.0949 35.5185H13.521C11.289 35.5245 9.12701 34.7397 7.41862 33.3032C5.71022 31.8668 4.56588 29.8716 4.18862 27.6717C3.81135 25.4718 4.22556 23.2093 5.35774 21.2858C6.48993 19.3622 8.26689 17.9019 10.3734 17.1638V14.2719C10.3734 12.1849 11.2024 10.1834 12.6782 8.70764C14.1539 7.2319 16.1555 6.40283 18.2425 6.40283C20.3295 6.40283 22.3311 7.2319 23.8068 8.70764C25.2825 10.1834 26.1116 12.1849 26.1116 14.2719V36.3055" stroke="#0152A8" stroke-width="2" stroke-linecap="round" stroke-linejoin="round"/>
<path d="M37.1281 35.5185H38.7019C40.9339 35.5245 43.0959 34.7397 44.8043 33.3032C46.5127 31.8668 47.6571 29.8716 48.0343 27.6717C48.4116 25.4718 47.9974 23.2093 46.8652 21.2858C45.733 19.3622 43.956 17.9019 41.8495 17.1638V14.2719C41.8495 12.1849 41.0205 10.1834 39.5447 8.70764C38.069 7.2319 36.0675 6.40283 33.9804 6.40283C31.8934 6.40283 29.8919 7.2319 28.4161 8.70764C26.9404 10.1834 26.1113 12.1849 26.1113 14.2719" stroke="#0152A8" stroke-width="2" stroke-linecap="round" stroke-linejoin="round"/>
<path d="M18.2428 16.6331V18.2069C18.2428 19.6678 17.6624 21.0689 16.6294 22.1019C15.5964 23.1349 14.1953 23.7153 12.7344 23.7153" stroke="#0152A8" stroke-width="2" stroke-linecap="round" stroke-linejoin="round"/>
<path d="M33.9814 16.6333V18.2071C33.9814 19.668 34.5618 21.0691 35.5948 22.1021C36.6278 23.1352 38.0289 23.7155 39.4898 23.7155" stroke="#0152A8" stroke-width="2" stroke-linecap="round" stroke-linejoin="round"/>
</svg>
