<svg width="23" height="22" viewBox="0 0 23 22" fill="none" xmlns="http://www.w3.org/2000/svg">
<path d="M16.4789 2.1917C17.7077 2.19523 18.8851 2.66652 19.754 3.50263C20.6229 4.33875 21.1127 5.47175 21.1164 6.6542V15.5782C21.1127 16.7607 20.6229 17.8937 19.754 18.7298C18.8851 19.5659 17.7077 20.0372 16.4789 20.0407H7.20502C5.97622 20.0372 4.7988 19.5659 3.9299 18.7298C3.06101 17.8937 2.57124 16.7607 2.56757 15.5782V6.6542C2.57124 5.47175 3.06101 4.33875 3.9299 3.50263C4.7988 2.66652 5.97622 2.19523 7.20502 2.1917H16.4789ZM16.4789 0.406982H7.20502C3.63427 0.406982 0.712891 3.21816 0.712891 6.6542V15.5782C0.712891 19.0143 3.63427 21.8255 7.20502 21.8255H16.4789C20.0497 21.8255 22.971 19.0143 22.971 15.5782V6.6542C22.971 3.21816 20.0497 0.406982 16.4789 0.406982Z" fill="white"/>
<path d="M17.5926 5.67731C17.3175 5.67731 17.0485 5.5988 16.8198 5.45171C16.591 5.30461 16.4127 5.09554 16.3074 4.85094C16.2021 4.60633 16.1745 4.33717 16.2282 4.0775C16.2819 3.81782 16.4144 3.5793 16.6089 3.39208C16.8035 3.20487 17.0514 3.07737 17.3212 3.02572C17.5911 2.97407 17.8708 3.00058 18.125 3.1019C18.3792 3.20322 18.5965 3.3748 18.7493 3.59494C18.9022 3.81508 18.9838 4.07389 18.9838 4.33865C18.9842 4.51456 18.9484 4.6888 18.8787 4.85138C18.8089 5.01397 18.7064 5.16169 18.5772 5.28607C18.4479 5.41045 18.2944 5.50904 18.1255 5.57618C17.9565 5.64332 17.7754 5.67769 17.5926 5.67731ZM11.5645 6.56943C12.2983 6.56943 13.0155 6.7788 13.6256 7.17107C14.2357 7.56333 14.7112 8.12087 14.992 8.77319C15.2728 9.4255 15.3463 10.1433 15.2031 10.8358C15.06 11.5283 14.7066 12.1644 14.1878 12.6636C13.669 13.1629 13.0079 13.5029 12.2883 13.6406C11.5687 13.7784 10.8227 13.7077 10.1448 13.4375C9.46695 13.1673 8.88755 12.7097 8.47991 12.1227C8.07226 11.5356 7.85468 10.8454 7.85468 10.1393C7.85574 9.19285 8.24693 8.28541 8.94244 7.61615C9.63794 6.94688 10.5809 6.57044 11.5645 6.56943ZM11.5645 4.78471C10.464 4.78471 9.38813 5.09876 8.47305 5.68713C7.55797 6.2755 6.84474 7.11178 6.42358 8.09021C6.00241 9.06864 5.89221 10.1453 6.10692 11.184C6.32163 12.2227 6.8516 13.1768 7.62982 13.9256C8.40803 14.6745 9.39954 15.1845 10.479 15.3911C11.5584 15.5977 12.6772 15.4916 13.694 15.0864C14.7108 14.6811 15.5798 13.9948 16.1913 13.1142C16.8027 12.2336 17.1291 11.1984 17.1291 10.1393C17.1291 8.7192 16.5428 7.35723 15.4993 6.35305C14.4557 5.34886 13.0403 4.78471 11.5645 4.78471Z" fill="white"/>
</svg>
