<svg width="25" height="24" viewBox="0 0 25 24" fill="none" xmlns="http://www.w3.org/2000/svg">
<path d="M11.599 0.773637C11.8983 -0.147674 13.2018 -0.147672 13.5011 0.773639L15.6595 7.4166C15.7934 7.82863 16.1774 8.10759 16.6106 8.10759L23.5954 8.10759C24.5641 8.10759 24.9669 9.3472 24.1832 9.9166L18.5324 14.0222C18.1819 14.2768 18.0352 14.7282 18.1691 15.1402L20.3275 21.7832C20.6269 22.7045 19.5724 23.4706 18.7887 22.9012L13.1378 18.7956C12.7873 18.541 12.3128 18.541 11.9623 18.7956L6.31142 22.9012C5.52771 23.4706 4.47323 22.7045 4.77258 21.7832L6.93101 15.1402C7.06489 14.7282 6.91823 14.2768 6.56774 14.0222L0.916895 9.9166C0.133181 9.3472 0.535958 8.10759 1.50468 8.10759L8.48951 8.10759C8.92274 8.10759 9.30669 7.82863 9.44057 7.4166L11.599 0.773637Z" fill="#FBB837"/>
</svg>
