<svg width="25" height="24" viewBox="0 0 25 24" fill="none" xmlns="http://www.w3.org/2000/svg">
<path d="M11.8988 0.773637C12.1982 -0.147674 13.5016 -0.147672 13.8009 0.773639L15.9593 7.4166C16.0932 7.82863 16.4772 8.10759 16.9104 8.10759L23.8952 8.10759C24.864 8.10759 25.2667 9.3472 24.483 9.9166L18.8322 14.0222C18.4817 14.2768 18.335 14.7282 18.4689 15.1402L20.6273 21.7832C20.9267 22.7045 19.8722 23.4706 19.0885 22.9012L13.4376 18.7956C13.0872 18.541 12.6126 18.541 12.2621 18.7956L6.61123 22.9012C5.82751 23.4706 4.77303 22.7045 5.07239 21.7832L7.23082 15.1402C7.36469 14.7282 7.21803 14.2768 6.86755 14.0222L1.2167 9.9166C0.432986 9.3472 0.835763 8.10759 1.80449 8.10759L8.78931 8.10759C9.22254 8.10759 9.6065 7.82863 9.74037 7.4166L11.8988 0.773637Z" fill="#AAA7A0"/>
</svg>
