<svg width="46" height="41" viewBox="0 0 46 41" fill="none" xmlns="http://www.w3.org/2000/svg">
<path d="M23.2412 39.7071C23.2412 39.7071 1.48438 27.5232 1.48438 12.7286C1.48438 10.1132 2.39053 7.57855 4.04868 5.55594C5.70683 3.53333 8.01453 2.14768 10.5792 1.63476C13.1438 1.12183 15.8069 1.51331 18.1154 2.74259C20.424 3.97187 22.2353 5.96301 23.2412 8.37724C24.2471 5.96301 26.0584 3.97187 28.367 2.74259C30.6755 1.51331 33.3386 1.12183 35.9032 1.63476C38.4679 2.14768 40.7756 3.53333 42.4337 5.55594C44.0919 7.57855 44.998 10.1132 44.998 12.7286C44.998 27.5232 23.2412 39.7071 23.2412 39.7071Z" fill="#0FE3AF" stroke="#0152A8" stroke-width="2" stroke-linecap="round" stroke-linejoin="round"/>
</svg>
